<svg width="200" height="200" fill="none" xmlns="http://www.w3.org/2000/svg"><circle cx="102.5" cy="102.5" r="97.5" fill="url(#paint0_linear)"/><circle cx="97.5" cy="97.5" r="97.5" fill="#fff"/><path fill-rule="evenodd" clip-rule="evenodd" d="M65.032 34.098c6.862-3.328 12.924-5.257 20.095-6.392 6.248-.99 15.923-.933 22.164.13 14.991 2.553 27.78 9.201 38.358 19.941 16.276 16.524 23.134 39.875 18.487 62.938-1.537 7.622-5.584 17.321-10.02 24.012-5.406 8.154-13.567 16.04-21.772 21.038-34.626 21.092-79.808 8.453-98.385-27.521-2.073-4.013-2.292-4.971-1.483-6.47.271-.502 10.834-11.216 23.473-23.808 15.582-15.525 23.28-22.968 23.913-23.12 2.234-.536 3.982.762 3.982 2.958 0 1.387-.133 1.55-6.355 7.78-3.496 3.5-13.55 13.62-22.344 22.491l-15.988 16.129.972 1.92c2.82 5.575 8.62 12.889 13.933 17.57 17.937 15.803 43.723 20.228 65.543 11.246 20.167-8.302 34.167-25.414 38.536-47.1.678-3.366.783-4.891.779-11.33-.005-8.826-.616-12.812-3.078-20.082-7.313-21.597-25.189-37.364-47.579-41.964-7.047-1.448-17.332-1.45-24.432-.008-20.607 4.19-37.84 18.157-46.1 37.365-.924 2.15-1.68 4.09-1.68 4.313 0 .223 3.955 4.366 8.79 9.207 5.715 5.723 8.87 9.13 9.02 9.738.28 1.136-.352 2.795-1.323 3.474-.39.272-1.24.494-1.89.494-1.098 0-1.907-.722-11.292-10.062-5.874-5.846-10.2-10.415-10.324-10.905-.438-1.722 3.708-11.728 7.358-17.759 6.697-11.062 17.187-20.666 28.642-26.223zm41.026 56.745l10.437-10.45 33.214 33.251a3.27 3.27 0 004.605-.017 3.267 3.267 0 00.016-4.605l-35.518-35.567a3.28 3.28 0 00-4.621 0L101.437 86.21a3.273 3.273 0 004.621 4.634zm-7.643.268l-9.413-9.413a3.267 3.267 0 10-4.621 4.621l3.828 3.829H77.53a3.28 3.28 0 000 6.547h17.216l8.413 8.401a3.25 3.25 0 003.562.712 3.278 3.278 0 001.059-5.333l-9.364-9.364z" fill="#00B3A4"/><defs><linearGradient id="paint0_linear" x1="102.5" y1="5" x2="102.5" y2="200" gradientUnits="userSpaceOnUse"><stop stop-color="#CCC"/><stop offset="1" stop-color="#8F8F8F"/></linearGradient></defs></svg>