<svg width="910" height="174" fill="none" xmlns="http://www.w3.org/2000/svg"><path d="M0 0h900l10 10v164H10L0 164V0z" fill="#00665E"/><path fill="#00B2A4" d="M0 0h900v164H0z"/><path d="M97.5 164l-19-29.5L86 102l11.5-37 13-18 16.5 3.5 28.5 25 9-10.5 15-18 24 3.5 21 25 25.5-25h36L302 65l16.5-6 39-18.5 13.5 10 17.5 48 29.5 15 38 50.5H97.5zm378 0l-35-48.5 17-13.5L469 65l13-18 16.5 3.5 28.5 25 9-10.5 15-18 24 3.5 32-10 14.5 10h36l16 14.5 16.5-6 39-18.5 13.5 10L787 59l39.5 51 42.5 54H475.5z" fill="#008F84"/><path fill-rule="evenodd" clip-rule="evenodd" d="M142.304 134.8H162.2v-26.65a33.944 33.944 0 002.713 3.751l.019.023.02.023c3.233 3.785 7.206 6.723 11.85 8.813l.046.02.045.02c4.808 2.049 10.233 3 16.161 3 5.535 0 10.679-.887 15.357-2.758l.033-.013.033-.014c4.643-1.934 8.656-4.715 11.969-8.344l.018-.019.018-.02c3.316-3.71 5.767-8.167 7.419-13.261a45.723 45.723 0 001.519-5.746c.513 2.607 1.227 5.063 2.157 7.355 2.097 5.167 4.977 9.57 8.716 13.07l.019.018.02.018c3.716 3.407 7.968 5.907 12.72 7.465l.012.004.011.004c4.644 1.497 9.462 2.241 14.435 2.241 4.109 0 8.129-.395 12.055-1.192 4.041-.753 2.489-.055 5.435-2.108l1-4 5.652 5.9h24.8V97.48L329.5 116.5l5.979 5.9h38.148l5.7-14.9h16.783v9l6 5.9h26.394l-31.401-80.5L391 36l-11.634 5.9-25.142 64.69-19.915-25.795-.388-.259.195-.127L362.914 42.4 357 36.5l-23.616 5.9-16.932 23.624V42.4L310 36.5l-18.348 5.9v3.017l-3.669-1.392c-2.323-.881-5.115-1.582-8.288-2.146-3.326-.604-7.278-.879-11.785-.879-4.477 0-8.978.722-13.487 2.126-4.731 1.474-9.023 3.877-12.851 7.164-3.981 3.35-7.122 7.713-9.505 12.921-1.159 2.502-2.025 5.22-2.623 8.136a47.979 47.979 0 00-1.309-5.21c-1.508-5.039-3.844-9.49-7.059-13.26-3.192-3.823-7.196-6.737-11.916-8.757-4.765-2.135-10.177-3.12-16.106-3.12-5.604 0-10.795.92-15.49 2.87-4.684 1.88-8.719 4.683-12.038 8.398l-.005.005c-3.263 3.661-5.678 8.099-7.324 13.188-1.657 5.12-2.443 10.786-2.443 16.939 0 5.81.717 11.233 2.209 16.23.077.258.156.515.237.77h-5.6v-57l-6.1-5.9-49.57 5.9.07 5.07c.132 9.313-.231 17.235-1.06 23.804l-.003.02-.003.022c-.785 6.676-1.722 12.156-2.789 16.488-1.105 4.484-2.149 7.664-3.088 9.709-.332.72-.629 1.349-.893 1.887H79L73 129l6 5.8h19.896l1.6-12.4H135.5l1 6.6 5.804 5.8zM254.11 82.4c0-3.53.418-6.415 1.15-8.736.821-2.393 1.875-4.19 3.073-5.526a11.026 11.026 0 014.289-2.978l.034-.013.033-.013c1.798-.73 3.884-1.134 6.321-1.134 3.266 0 5.792.162 7.651.444l.011.001.011.002c1.932.284 3.447.716 4.613 1.23l5.512 2.424 4.844-20.715v63.732l-3.927-15.981-5.685 3.06c-1.33.717-2.952 1.351-4.909 1.869l-.018.005-.018.005c-1.631.445-3.888.724-6.885.724-3.005 0-5.416-.482-7.344-1.302-1.996-.848-3.536-1.993-4.725-3.411-1.253-1.494-2.252-3.343-2.945-5.634-.704-2.33-1.086-5.001-1.086-8.053zm-52.496-14.05l.049.078.051.076c.978 1.444 1.756 3.282 2.246 5.62.521 2.488.794 5.24.794 8.276 0 8.074-1.46 12.613-3.276 14.842-1.849 2.269-4.433 3.558-8.424 3.558-2.185 0-3.842-.425-5.126-1.1-1.292-.715-2.376-1.722-3.273-3.11-.966-1.5-1.77-3.41-2.331-5.823-.567-2.436-.87-5.216-.87-8.367 0-7.735 1.433-12.295 3.331-14.71 1.887-2.402 4.436-3.69 8.269-3.69 2.34 0 3.957.466 5.089 1.124l.082.047.083.045c1.325.704 2.418 1.713 3.306 3.134zM388.806 85.8h-1.668l.829-2.269.839 2.269zm56.753 36.6h24.8v-57h16.8l-5.659 51.1 5.659 5.9h24.8v-80l-6.459-5.9-59.941 5.9-6.059 74.1 6.059 5.9zm76.705-70.132l-.004.005c-3.264 3.661-5.679 8.099-7.325 13.188-1.656 5.12-2.443 10.786-2.443 16.939 0 5.81.717 11.233 2.209 16.23 1.504 5.038 3.801 9.492 6.95 13.271l.02.023.019.023c3.233 3.785 7.207 6.723 11.85 8.813l.046.02.046.02c4.807 2.049 10.232 3 16.16 3 5.535 0 10.68-.887 15.357-2.758l.033-.013.033-.014c4.644-1.934 8.656-4.715 11.97-8.344l.018-.019.017-.02c3.316-3.71 5.767-8.167 7.419-13.261 1.7-5.038 2.523-10.603 2.552-16.635.186.593.393 1.174.624 1.742 1.258 3.103 3.079 5.797 5.512 7.96 2.378 2.113 5.181 3.64 8.316 4.63l.057.018.058.017c3.052.883 6.328 1.297 9.79 1.297 4.683 0 8.91-.424 12.613-1.35l.035-.008.035-.01c.447-.118.886-.239 1.317-.363L619.5 116l6.048 6.4h24.8v-80L644 36.5l-18.452 5.9v32.328c-.531.21-1.166.413-1.92.599-2.067.441-4.322.673-6.78.673-3.151 0-4.257-.822-4.669-1.313-.709-.846-1.431-2.496-1.431-5.687V42.4l-6.248-5.9-18.552 5.9v27.81a47.18 47.18 0 00-1.074-4.071c-1.509-5.04-3.845-9.492-7.061-13.264-3.191-3.822-7.195-6.736-11.915-8.755-4.765-2.135-10.177-3.12-16.106-3.12-5.603 0-10.794.92-15.489 2.87-4.684 1.88-8.719 4.683-12.039 8.398zm36.088 16.082l.049.078.052.076c.977 1.444 1.756 3.282 2.245 5.62.521 2.488.794 5.24.794 8.276 0 8.074-1.46 12.613-3.276 14.842-1.849 2.269-4.433 3.558-8.424 3.558-2.184 0-3.841-.425-5.125-1.1-1.292-.715-2.377-1.721-3.273-3.11-.967-1.5-1.771-3.41-2.332-5.823-.566-2.436-.87-5.216-.87-8.367 0-7.735 1.433-12.295 3.332-14.71 1.886-2.402 4.435-3.69 8.268-3.69 2.341 0 3.957.466 5.09 1.124l.081.047.083.045c1.325.704 2.418 1.713 3.306 3.134zm215.56-25.95L768 36.5l-114.629 5.9-3.023 76.1 3.023 3.9h55.6v-23L703 93.6l-24.829 5.8v-5.8h27.5v-23l-6.171-5.2-21.329 5.2v-5.2h48.741L721 116.5l5.912 5.9h24.8v-57h22.2v-23zm5.868 80l5.7-14.9h16.782l.238 9 5.762 5.9h26.394l-31.4-80.5L797 36l-11.482 5.9-33.806 72.1v4l2.519 4.4h25.549zm15.179-36.6h-1.669l.83-2.269.839 2.269zM120.586 65.4c-.507 9.517-1.495 17.633-3.005 24.287-.795 3.637-1.62 6.891-2.49 9.713H127.8v-34h-7.214z" fill="url(#paint0_linear)"/><mask id="a" maskUnits="userSpaceOnUse" x="73" y="35" width="756" height="94" fill="#000"><path fill="#fff" d="M73 35h756v94H73z"/><path d="M151.2 123.8h-10.5l-1.6-12.4h-49l-1.6 12.4H78V98.4h8.1c.533-.733 1.367-2.333 2.5-4.8 1.133-2.467 2.267-6 3.4-10.6s2.1-10.3 2.9-17.1c.867-6.867 1.233-15.033 1.1-24.5h45.6v57h9.6v25.4zm-24.4-25.4v-44h-17c-.4 11.467-1.433 20.867-3.1 28.2-1.6 7.333-3.233 12.6-4.9 15.8h25zm27.954-22c0-5.733.733-10.867 2.2-15.4 1.467-4.533 3.567-8.333 6.3-11.4 2.8-3.133 6.2-5.5 10.2-7.1 4-1.667 8.533-2.5 13.6-2.5 5.4 0 10.1.9 14.1 2.7 4.067 1.733 7.433 4.2 10.1 7.4 2.733 3.2 4.767 7.033 6.1 11.5 1.4 4.467 2.1 9.4 2.1 14.8 0 5.733-.767 10.867-2.3 15.4-1.467 4.533-3.6 8.367-6.4 11.5-2.8 3.067-6.2 5.433-10.2 7.1-4 1.6-8.5 2.4-13.5 2.4-5.4 0-10.133-.867-14.2-2.6-4-1.8-7.367-4.3-10.1-7.5-2.667-3.2-4.667-7.033-6-11.5-1.333-4.467-2-9.4-2-14.8zm15.7 0c0 3.467.333 6.633 1 9.5s1.667 5.333 3 7.4 3.033 3.667 5.1 4.8c2.133 1.133 4.633 1.7 7.5 1.7 5.267 0 9.367-1.8 12.3-5.4 2.933-3.6 4.4-9.6 4.4-18 0-3.333-.3-6.433-.9-9.3-.6-2.867-1.6-5.333-3-7.4-1.333-2.133-3.067-3.767-5.2-4.9-2.067-1.2-4.6-1.8-7.6-1.8-5.2 0-9.267 1.867-12.2 5.6-2.933 3.733-4.4 9.667-4.4 17.8zm110.856 32c-2.2 1.533-5.1 2.633-8.7 3.3-3.6.733-7.3 1.1-11.1 1.1-4.466 0-8.767-.667-12.9-2-4.067-1.333-7.7-3.467-10.9-6.4-3.133-2.933-5.633-6.7-7.5-11.3-1.867-4.6-2.8-10.167-2.8-16.7 0-6.8 1.067-12.5 3.2-17.1 2.133-4.667 4.867-8.4 8.2-11.2 3.333-2.867 7.033-4.933 11.1-6.2 4.067-1.267 8.067-1.9 12-1.9 4.333 0 7.967.267 10.9.8 3 .533 5.467 1.167 7.4 1.9l-2.9 12.4c-1.667-.733-3.633-1.267-5.9-1.6-2.2-.333-5-.5-8.4-.5-3 0-5.733.5-8.2 1.5a16.015 16.015 0 00-6.2 4.3c-1.733 1.933-3.1 4.367-4.1 7.3-.933 2.933-1.4 6.367-1.4 10.3 0 3.467.433 6.633 1.3 9.5s2.167 5.333 3.9 7.4 3.933 3.667 6.6 4.8 5.767 1.7 9.3 1.7c3.267 0 6-.3 8.2-.9 2.267-.6 4.267-1.367 6-2.3l2.9 11.8zm28.042-26.6h-3.9v29.6h-14.8v-70h14.8v30.8l3.5-1.5 21-29.3h16.9l-22.2 29.3-5.8 3.8 6 4 25.4 32.9h-18.3l-22.6-29.6z"/><path d="M393.487 96.5h-23.6l-5.7 14.9h-14.8l27.4-70.5h10.9l27.5 70.5h-15.7l-6-14.9zm-19.5-11.7h16l-5.4-14.6-2.4-11.1h-.5l-2.4 11.2-5.3 14.5zm112.172-30.4h-26.8v57h-14.8v-70h56.4v70h-14.8v-57zm25.333 22c0-5.733.734-10.867 2.2-15.4 1.467-4.533 3.567-8.333 6.3-11.4 2.8-3.133 6.2-5.5 10.2-7.1 4-1.667 8.533-2.5 13.6-2.5 5.4 0 10.1.9 14.1 2.7 4.067 1.733 7.434 4.2 10.1 7.4 2.734 3.2 4.767 7.033 6.1 11.5 1.4 4.467 2.1 9.4 2.1 14.8 0 5.733-.766 10.867-2.3 15.4-1.466 4.533-3.6 8.367-6.4 11.5-2.8 3.067-6.2 5.433-10.2 7.1-4 1.6-8.5 2.4-13.5 2.4-5.4 0-10.133-.867-14.2-2.6-4-1.8-7.366-4.3-10.1-7.5-2.666-3.2-4.666-7.033-6-11.5-1.333-4.467-2-9.4-2-14.8zm15.7 0c0 3.467.334 6.633 1 9.5.667 2.867 1.667 5.333 3 7.4 1.334 2.067 3.033 3.667 5.1 4.8 2.134 1.133 4.634 1.7 7.5 1.7 5.267 0 9.367-1.8 12.3-5.4 2.934-3.6 4.4-9.6 4.4-18 0-3.333-.3-6.433-.9-9.3-.6-2.867-1.6-5.333-3-7.4-1.333-2.133-3.066-3.767-5.2-4.9-2.066-1.2-4.6-1.8-7.6-1.8-5.2 0-9.266 1.867-12.2 5.6-2.933 3.733-4.4 9.667-4.4 17.8zm72.556-35V63c0 3.867.867 6.833 2.6 8.9 1.734 2.067 4.567 3.1 8.5 3.1 2.8 0 5.434-.267 7.9-.8 2.467-.6 4.4-1.467 5.8-2.6V41.4h14.8v70h-14.8v-28c-1.8 1-4.333 1.933-7.6 2.8-3.2.8-7 1.2-11.4 1.2-3.066 0-5.866-.367-8.4-1.1-2.533-.8-4.7-2-6.5-3.6-1.8-1.6-3.2-3.633-4.2-6.1-1-2.467-1.5-5.4-1.5-8.8V41.4h14.8zm52.623 0h45.1v13h-30.3v15.2h27.5v13h-27.5v15.8h30.8v13h-45.6v-70zm110.541 13h-22.2v57h-14.8v-57h-22.2v-13h59.2v13zm36.727 42.1h-23.6l-5.7 14.9h-14.8l27.4-70.5h10.9l27.5 70.5h-15.7l-6-14.9zm-19.5-11.7h16l-5.4-14.6-2.4-11.1h-.5l-2.4 11.2-5.3 14.5z"/></mask><path d="M151.2 123.8h-10.5l-1.6-12.4h-49l-1.6 12.4H78V98.4h8.1c.533-.733 1.367-2.333 2.5-4.8 1.133-2.467 2.267-6 3.4-10.6s2.1-10.3 2.9-17.1c.867-6.867 1.233-15.033 1.1-24.5h45.6v57h9.6v25.4zm-24.4-25.4v-44h-17c-.4 11.467-1.433 20.867-3.1 28.2-1.6 7.333-3.233 12.6-4.9 15.8h25z" fill="url(#paint1_linear)"/><path d="M154.754 76.4c0-5.733.733-10.867 2.2-15.4 1.467-4.533 3.567-8.333 6.3-11.4 2.8-3.133 6.2-5.5 10.2-7.1 4-1.667 8.533-2.5 13.6-2.5 5.4 0 10.1.9 14.1 2.7 4.067 1.733 7.433 4.2 10.1 7.4 2.733 3.2 4.767 7.033 6.1 11.5 1.4 4.467 2.1 9.4 2.1 14.8 0 5.733-.767 10.867-2.3 15.4-1.467 4.533-3.6 8.367-6.4 11.5-2.8 3.067-6.2 5.433-10.2 7.1-4 1.6-8.5 2.4-13.5 2.4-5.4 0-10.133-.867-14.2-2.6-4-1.8-7.367-4.3-10.1-7.5-2.667-3.2-4.667-7.033-6-11.5-1.333-4.467-2-9.4-2-14.8zm15.7 0c0 3.467.333 6.633 1 9.5s1.667 5.333 3 7.4 3.033 3.667 5.1 4.8c2.133 1.133 4.633 1.7 7.5 1.7 5.267 0 9.367-1.8 12.3-5.4 2.933-3.6 4.4-9.6 4.4-18 0-3.333-.3-6.433-.9-9.3-.6-2.867-1.6-5.333-3-7.4-1.333-2.133-3.067-3.767-5.2-4.9-2.067-1.2-4.6-1.8-7.6-1.8-5.2 0-9.267 1.867-12.2 5.6-2.933 3.733-4.4 9.667-4.4 17.8z" fill="url(#paint2_linear)"/><path d="M281.31 108.4c-2.2 1.533-5.1 2.633-8.7 3.3-3.6.733-7.3 1.1-11.1 1.1-4.466 0-8.767-.667-12.9-2-4.067-1.333-7.7-3.467-10.9-6.4-3.133-2.933-5.633-6.7-7.5-11.3-1.867-4.6-2.8-10.167-2.8-16.7 0-6.8 1.067-12.5 3.2-17.1 2.133-4.667 4.867-8.4 8.2-11.2 3.333-2.867 7.033-4.933 11.1-6.2 4.067-1.267 8.067-1.9 12-1.9 4.333 0 7.967.267 10.9.8 3 .533 5.467 1.167 7.4 1.9l-2.9 12.4c-1.667-.733-3.633-1.267-5.9-1.6-2.2-.333-5-.5-8.4-.5-3 0-5.733.5-8.2 1.5a16.015 16.015 0 00-6.2 4.3c-1.733 1.933-3.1 4.367-4.1 7.3-.933 2.933-1.4 6.367-1.4 10.3 0 3.467.433 6.633 1.3 9.5s2.167 5.333 3.9 7.4 3.933 3.667 6.6 4.8 5.767 1.7 9.3 1.7c3.267 0 6-.3 8.2-.9 2.267-.6 4.267-1.367 6-2.3l2.9 11.8z" fill="url(#paint3_linear)"/><path d="M309.352 81.8h-3.9v29.6h-14.8v-70h14.8v30.8l3.5-1.5 21-29.3h16.9l-22.2 29.3-5.8 3.8 6 4 25.4 32.9h-18.3l-22.6-29.6z" fill="url(#paint4_linear)"/><path d="M393.487 96.5h-23.6l-5.7 14.9h-14.8l27.4-70.5h10.9l27.5 70.5h-15.7l-6-14.9zm-19.5-11.7h16l-5.4-14.6-2.4-11.1h-.5l-2.4 11.2-5.3 14.5z" fill="url(#paint5_linear)"/><path d="M486.159 54.4h-26.8v57h-14.8v-70h56.4v70h-14.8v-57z" fill="url(#paint6_linear)"/><path d="M511.492 76.4c0-5.733.734-10.867 2.2-15.4 1.467-4.533 3.567-8.333 6.3-11.4 2.8-3.133 6.2-5.5 10.2-7.1 4-1.667 8.533-2.5 13.6-2.5 5.4 0 10.1.9 14.1 2.7 4.067 1.733 7.434 4.2 10.1 7.4 2.734 3.2 4.767 7.033 6.1 11.5 1.4 4.467 2.1 9.4 2.1 14.8 0 5.733-.766 10.867-2.3 15.4-1.466 4.533-3.6 8.367-6.4 11.5-2.8 3.067-6.2 5.433-10.2 7.1-4 1.6-8.5 2.4-13.5 2.4-5.4 0-10.133-.867-14.2-2.6-4-1.8-7.366-4.3-10.1-7.5-2.666-3.2-4.666-7.033-6-11.5-1.333-4.467-2-9.4-2-14.8zm15.7 0c0 3.467.334 6.633 1 9.5.667 2.867 1.667 5.333 3 7.4 1.334 2.067 3.033 3.667 5.1 4.8 2.134 1.133 4.634 1.7 7.5 1.7 5.267 0 9.367-1.8 12.3-5.4 2.934-3.6 4.4-9.6 4.4-18 0-3.333-.3-6.433-.9-9.3-.6-2.867-1.6-5.333-3-7.4-1.333-2.133-3.066-3.767-5.2-4.9-2.066-1.2-4.6-1.8-7.6-1.8-5.2 0-9.266 1.867-12.2 5.6-2.933 3.733-4.4 9.667-4.4 17.8z" fill="url(#paint7_linear)"/><path d="M599.748 41.4V63c0 3.867.867 6.833 2.6 8.9 1.734 2.067 4.567 3.1 8.5 3.1 2.8 0 5.434-.267 7.9-.8 2.467-.6 4.4-1.467 5.8-2.6V41.4h14.8v70h-14.8v-28c-1.8 1-4.333 1.933-7.6 2.8-3.2.8-7 1.2-11.4 1.2-3.066 0-5.866-.367-8.4-1.1-2.533-.8-4.7-2-6.5-3.6-1.8-1.6-3.2-3.633-4.2-6.1-1-2.467-1.5-5.4-1.5-8.8V41.4h14.8z" fill="url(#paint8_linear)"/><path d="M652.371 41.4h45.1v13h-30.3v15.2h27.5v13h-27.5v15.8h30.8v13h-45.6v-70z" fill="url(#paint9_linear)"/><path d="M762.912 54.4h-22.2v57h-14.8v-57h-22.2v-13h59.2v13z" fill="url(#paint10_linear)"/><path d="M799.639 96.5h-23.6l-5.7 14.9h-14.8l27.4-70.5h10.9l27.5 70.5h-15.7l-6-14.9zm-19.5-11.7h16l-5.4-14.6-2.4-11.1h-.5l-2.4 11.2-5.3 14.5z" fill="url(#paint11_linear)"/><path d="M151.2 123.8h-10.5l-1.6-12.4h-49l-1.6 12.4H78V98.4h8.1c.533-.733 1.367-2.333 2.5-4.8 1.133-2.467 2.267-6 3.4-10.6s2.1-10.3 2.9-17.1c.867-6.867 1.233-15.033 1.1-24.5h45.6v57h9.6v25.4zm-24.4-25.4v-44h-17c-.4 11.467-1.433 20.867-3.1 28.2-1.6 7.333-3.233 12.6-4.9 15.8h25zm27.954-22c0-5.733.733-10.867 2.2-15.4 1.467-4.533 3.567-8.333 6.3-11.4 2.8-3.133 6.2-5.5 10.2-7.1 4-1.667 8.533-2.5 13.6-2.5 5.4 0 10.1.9 14.1 2.7 4.067 1.733 7.433 4.2 10.1 7.4 2.733 3.2 4.767 7.033 6.1 11.5 1.4 4.467 2.1 9.4 2.1 14.8 0 5.733-.767 10.867-2.3 15.4-1.467 4.533-3.6 8.367-6.4 11.5-2.8 3.067-6.2 5.433-10.2 7.1-4 1.6-8.5 2.4-13.5 2.4-5.4 0-10.133-.867-14.2-2.6-4-1.8-7.367-4.3-10.1-7.5-2.667-3.2-4.667-7.033-6-11.5-1.333-4.467-2-9.4-2-14.8zm15.7 0c0 3.467.333 6.633 1 9.5s1.667 5.333 3 7.4 3.033 3.667 5.1 4.8c2.133 1.133 4.633 1.7 7.5 1.7 5.267 0 9.367-1.8 12.3-5.4 2.933-3.6 4.4-9.6 4.4-18 0-3.333-.3-6.433-.9-9.3-.6-2.867-1.6-5.333-3-7.4-1.333-2.133-3.067-3.767-5.2-4.9-2.067-1.2-4.6-1.8-7.6-1.8-5.2 0-9.267 1.867-12.2 5.6-2.933 3.733-4.4 9.667-4.4 17.8zm110.856 32c-2.2 1.533-5.1 2.633-8.7 3.3-3.6.733-7.3 1.1-11.1 1.1-4.466 0-8.767-.667-12.9-2-4.067-1.333-7.7-3.467-10.9-6.4-3.133-2.933-5.633-6.7-7.5-11.3-1.867-4.6-2.8-10.167-2.8-16.7 0-6.8 1.067-12.5 3.2-17.1 2.133-4.667 4.867-8.4 8.2-11.2 3.333-2.867 7.033-4.933 11.1-6.2 4.067-1.267 8.067-1.9 12-1.9 4.333 0 7.967.267 10.9.8 3 .533 5.467 1.167 7.4 1.9l-2.9 12.4c-1.667-.733-3.633-1.267-5.9-1.6-2.2-.333-5-.5-8.4-.5-3 0-5.733.5-8.2 1.5a16.015 16.015 0 00-6.2 4.3c-1.733 1.933-3.1 4.367-4.1 7.3-.933 2.933-1.4 6.367-1.4 10.3 0 3.467.433 6.633 1.3 9.5s2.167 5.333 3.9 7.4 3.933 3.667 6.6 4.8 5.767 1.7 9.3 1.7c3.267 0 6-.3 8.2-.9 2.267-.6 4.267-1.367 6-2.3l2.9 11.8zm28.042-26.6h-3.9v29.6h-14.8v-70h14.8v30.8l3.5-1.5 21-29.3h16.9l-22.2 29.3-5.8 3.8 6 4 25.4 32.9h-18.3l-22.6-29.6z" stroke="#fff" stroke-width="10" mask="url(#a)"/><path d="M393.487 96.5h-23.6l-5.7 14.9h-14.8l27.4-70.5h10.9l27.5 70.5h-15.7l-6-14.9zm-19.5-11.7h16l-5.4-14.6-2.4-11.1h-.5l-2.4 11.2-5.3 14.5zm112.172-30.4h-26.8v57h-14.8v-70h56.4v70h-14.8v-57zm25.333 22c0-5.733.734-10.867 2.2-15.4 1.467-4.533 3.567-8.333 6.3-11.4 2.8-3.133 6.2-5.5 10.2-7.1 4-1.667 8.533-2.5 13.6-2.5 5.4 0 10.1.9 14.1 2.7 4.067 1.733 7.434 4.2 10.1 7.4 2.734 3.2 4.767 7.033 6.1 11.5 1.4 4.467 2.1 9.4 2.1 14.8 0 5.733-.766 10.867-2.3 15.4-1.466 4.533-3.6 8.367-6.4 11.5-2.8 3.067-6.2 5.433-10.2 7.1-4 1.6-8.5 2.4-13.5 2.4-5.4 0-10.133-.867-14.2-2.6-4-1.8-7.366-4.3-10.1-7.5-2.666-3.2-4.666-7.033-6-11.5-1.333-4.467-2-9.4-2-14.8zm15.7 0c0 3.467.334 6.633 1 9.5.667 2.867 1.667 5.333 3 7.4 1.334 2.067 3.033 3.667 5.1 4.8 2.134 1.133 4.634 1.7 7.5 1.7 5.267 0 9.367-1.8 12.3-5.4 2.934-3.6 4.4-9.6 4.4-18 0-3.333-.3-6.433-.9-9.3-.6-2.867-1.6-5.333-3-7.4-1.333-2.133-3.066-3.767-5.2-4.9-2.066-1.2-4.6-1.8-7.6-1.8-5.2 0-9.266 1.867-12.2 5.6-2.933 3.733-4.4 9.667-4.4 17.8zm72.556-35V63c0 3.867.867 6.833 2.6 8.9 1.734 2.067 4.567 3.1 8.5 3.1 2.8 0 5.434-.267 7.9-.8 2.467-.6 4.4-1.467 5.8-2.6V41.4h14.8v70h-14.8v-28c-1.8 1-4.333 1.933-7.6 2.8-3.2.8-7 1.2-11.4 1.2-3.066 0-5.866-.367-8.4-1.1-2.533-.8-4.7-2-6.5-3.6-1.8-1.6-3.2-3.633-4.2-6.1-1-2.467-1.5-5.4-1.5-8.8V41.4h14.8zm52.623 0h45.1v13h-30.3v15.2h27.5v13h-27.5v15.8h30.8v13h-45.6v-70zm110.541 13h-22.2v57h-14.8v-57h-22.2v-13h59.2v13zm36.727 42.1h-23.6l-5.7 14.9h-14.8l27.4-70.5h10.9l27.5 70.5h-15.7l-6-14.9zm-19.5-11.7h16l-5.4-14.6-2.4-11.1h-.5l-2.4 11.2-5.3 14.5z" stroke="#fff" stroke-width="10" mask="url(#a)"/><defs><linearGradient id="paint0_linear" x1="456.828" y1="41" x2="456.828" y2="134.8" gradientUnits="userSpaceOnUse"><stop stop-color="#F1F1F1"/><stop offset="1" stop-color="#4A4A4A"/></linearGradient><linearGradient id="paint1_linear" x1="450" y1="9.4" x2="450" y2="138.4" gradientUnits="userSpaceOnUse"><stop stop-color="#DD1525"/><stop offset="1" stop-color="#AE0D1A"/></linearGradient><linearGradient id="paint2_linear" x1="450" y1="9.4" x2="450" y2="138.4" gradientUnits="userSpaceOnUse"><stop stop-color="#DD1525"/><stop offset="1" stop-color="#AE0D1A"/></linearGradient><linearGradient id="paint3_linear" x1="450" y1="9.4" x2="450" y2="138.4" gradientUnits="userSpaceOnUse"><stop stop-color="#DD1525"/><stop offset="1" stop-color="#AE0D1A"/></linearGradient><linearGradient id="paint4_linear" x1="450" y1="9.4" x2="450" y2="138.4" gradientUnits="userSpaceOnUse"><stop stop-color="#DD1525"/><stop offset="1" stop-color="#AE0D1A"/></linearGradient><linearGradient id="paint5_linear" x1="450" y1="9.4" x2="450" y2="138.4" gradientUnits="userSpaceOnUse"><stop stop-color="#DD1525"/><stop offset="1" stop-color="#AE0D1A"/></linearGradient><linearGradient id="paint6_linear" x1="450" y1="9.4" x2="450" y2="138.4" gradientUnits="userSpaceOnUse"><stop stop-color="#DD1525"/><stop offset="1" stop-color="#AE0D1A"/></linearGradient><linearGradient id="paint7_linear" x1="450" y1="9.4" x2="450" y2="138.4" gradientUnits="userSpaceOnUse"><stop stop-color="#DD1525"/><stop offset="1" stop-color="#AE0D1A"/></linearGradient><linearGradient id="paint8_linear" x1="450" y1="9.4" x2="450" y2="138.4" gradientUnits="userSpaceOnUse"><stop stop-color="#DD1525"/><stop offset="1" stop-color="#AE0D1A"/></linearGradient><linearGradient id="paint9_linear" x1="450" y1="9.4" x2="450" y2="138.4" gradientUnits="userSpaceOnUse"><stop stop-color="#DD1525"/><stop offset="1" stop-color="#AE0D1A"/></linearGradient><linearGradient id="paint10_linear" x1="450" y1="9.4" x2="450" y2="138.4" gradientUnits="userSpaceOnUse"><stop stop-color="#DD1525"/><stop offset="1" stop-color="#AE0D1A"/></linearGradient><linearGradient id="paint11_linear" x1="450" y1="9.4" x2="450" y2="138.4" gradientUnits="userSpaceOnUse"><stop stop-color="#DD1525"/><stop offset="1" stop-color="#AE0D1A"/></linearGradient></defs></svg>