<svg width="82" height="76" fill="none" xmlns="http://www.w3.org/2000/svg"><path d="M40.519 35.67l14.099 19.415m-14.1-19.415L26.883 55.085M40.52 35.67V24.575m14.099 30.51l9.014-13.406 16.642 23.114H61.667m-7.049-9.708l7.05 9.708m0 0l7.049 9.707H13.245l6.819-9.707m0 0H1.226l16.18-23.114 9.476 13.406m-6.818 9.708l6.818-9.708m13.637-30.51v-8.782H26.882l2.08 4.16-2.08 4.623H40.52z" stroke="#fff" stroke-width="2" stroke-linecap="round" stroke-linejoin="round"/><path d="M10.31 51.85a34.519 34.519 0 01-3.999-16.18C6.311 16.522 21.834 1 40.981 1c19.148 0 34.67 15.522 34.67 34.67 0 6.03-1.54 11.702-4.248 16.641" stroke="#fff" stroke-width="2" stroke-linecap="round" stroke-linejoin="round"/></svg>