<svg width="81" height="50" fill="none" xmlns="http://www.w3.org/2000/svg"><path d="M12.298 27.118L11 31.618H1v-30.5c9.2-.8 15.5 2.667 17.5 4.5l-.652 2.26m-5.55 19.24c4.234 5 14.102 15.7 19.702 18.5 7 3.5 9.5 3.5 11 2.5l1-.5m-31.702-20.5l5.55-19.24M44 47.619l-8.5-8.5m8.5 8.5c2.167 1 6.5 1.8 6.5-3m0 0l-8.5-9.5m8.5 9.5c2.333.5 7 .4 7-4m0 0l-9.5-10m9.5 10c1 .333 3.4.5 5-1.5.956-1.196.65-2.57 0-3.696M61 11.618c-5.333-2-16.7-6.2-19.5-7-2.846-.813-5.692 1.349-8 3.26m27.5 3.74l-1.5-3.74c5.2-3.791 15.5-4.086 20-3.76l.5 31.304h-9.5l-1.917-4.804m-7.583-19l7.583 19M33.5 7.878c-.53.44-1.033.866-1.5 1.24-2.5 2-8 8.5-4.5 12 2.8 2.8 7.5-.833 9.5-3 2.4.4 4.333-.833 5-1.5l19 17a7.301 7.301 0 011.5 1.804M33.5 7.88H17.848M62.5 35.422l6.083-4.804" stroke="#fff" stroke-width="2" stroke-linecap="round" stroke-linejoin="round"/></svg>