<svg width="33" height="32" fill="none" xmlns="http://www.w3.org/2000/svg"><path d="M20.625 10.667h.014m2.736-5.334H9.625c-2.278 0-4.125 1.791-4.125 4v13.334c0 2.209 1.847 4 4.125 4h13.75c2.278 0 4.125-1.791 4.125-4V9.333c0-2.209-1.847-4-4.125-4z" stroke="#303030" stroke-width="2" stroke-linecap="round" stroke-linejoin="round"/><path d="M5.5 20l5.5-5.333c.627-.585 1.338-.893 2.063-.893.724 0 1.435.308 2.062.893L22 21.333" stroke="#303030" stroke-width="2" stroke-linecap="round" stroke-linejoin="round"/><path d="M19.25 18.667l1.375-1.334c.627-.585 1.338-.893 2.063-.893.724 0 1.435.308 2.062.893L27.5 20" stroke="#303030" stroke-width="2" stroke-linecap="round" stroke-linejoin="round"/></svg>