<svg width="24" height="24" fill="none" xmlns="http://www.w3.org/2000/svg"><path d="M16.219 2.95l-7.5-.026a5.757 5.757 0 00-5.77 5.73l-.025 7.5a5.757 5.757 0 005.73 5.77l7.5.025a5.757 5.757 0 005.77-5.73l.025-7.5a5.757 5.757 0 00-5.73-5.77zm-3.8 14.487a5.006 5.006 0 01-4.982-5.017 5.006 5.006 0 015.017-4.983 5.006 5.006 0 014.983 5.016 5.006 5.006 0 01-5.017 4.984zm5.031-8.984a1 1 0 11.007-2 1 1 0 01-.007 2z" fill="#006058"/><path d="M12.425 15.937a3.5 3.5 0 10.023-7 3.5 3.5 0 00-.023 7z" fill="#006058"/></svg>