<svg width="49" height="64" fill="none" xmlns="http://www.w3.org/2000/svg"><path d="M1.186 16.636C3.44 9.35 9.368 3.42 16.654 1.166 24.365-1.223 32.57.106 38.832 4.72c6.217 4.582 9.928 11.923 9.928 19.636 0 5.321-1.683 10.376-4.867 14.618L24.378 64 4.862 38.972C.098 32.62-1.243 24.48 1.186 16.636z" fill="#00B3A4"/><path fill-rule="evenodd" clip-rule="evenodd" d="M14.87 6.992c1.925-.934 3.626-1.475 5.638-1.794 1.753-.277 4.467-.262 6.218.037 4.207.716 7.795 2.581 10.763 5.594 4.566 4.637 6.49 11.188 5.187 17.66-.431 2.138-1.567 4.86-2.812 6.737-1.517 2.287-3.806 4.5-6.108 5.902C24.04 47.046 11.362 43.5 6.15 33.407c-.581-1.126-.643-1.395-.416-1.816.076-.14 3.04-3.147 6.586-6.68 4.372-4.356 6.532-6.444 6.71-6.486.626-.15 1.117.213 1.117.83 0 .389-.038.434-1.784 2.182-.98.982-3.801 3.822-6.269 6.31L7.61 32.274l.272.539c.792 1.564 2.42 3.616 3.91 4.93 5.032 4.434 12.267 5.675 18.39 3.155 5.658-2.33 9.586-7.13 10.811-13.215.19-.945.22-1.373.22-3.18-.002-2.476-.174-3.594-.864-5.634-2.052-6.06-7.068-10.483-13.35-11.774-1.977-.406-4.863-.407-6.855-.002C14.362 8.268 9.527 12.186 7.21 17.576c-.26.603-.472 1.147-.472 1.21 0 .062 1.11 1.225 2.466 2.583 1.604 1.606 2.49 2.562 2.531 2.732.079.319-.099.785-.371.975-.11.076-.348.139-.53.139-.308 0-.535-.203-3.169-2.823-1.648-1.64-2.861-2.923-2.896-3.06-.123-.483 1.04-3.29 2.064-4.983 1.88-3.104 4.822-5.798 8.036-7.357zm11.51 15.92l2.93-2.931 9.318 9.329a.917.917 0 001.297-1.296l-9.966-9.98a.92.92 0 00-1.296 0l-3.579 3.579a.918.918 0 101.297 1.3zm-2.144.076l-2.64-2.641a.917.917 0 10-1.297 1.296l1.074 1.075h-2.997a.92.92 0 000 1.837h4.83l2.36 2.357a.914.914 0 001.565-.648.92.92 0 00-.268-.649l-2.627-2.627z" fill="#fff"/></svg>