<svg width="20" height="22" fill="none" xmlns="http://www.w3.org/2000/svg"><path d="M19.796 12.642c.65-5.48-.313-8.938-2.051-10.503C14.94-.534 5.466-.93 2.11 2.258.602 3.816.071 6.105.013 8.938c-.058 2.833-.127 8.141 4.819 9.581h.005l-.005 2.2s-.034.89.535 1.07c.651.21.946-.203 2.97-2.622 3.386.294 5.986-.379 6.281-.477.684-.229 4.552-.74 5.178-6.049zM8.67 17.622s-2.143 2.671-2.809 3.365c-.218.225-.457.204-.454-.243 0-.294.017-3.651.017-3.651-4.194-1.202-3.947-5.722-3.901-8.086.045-2.366.478-4.303 1.754-5.608C6.223.64 14.53 1.256 16.646 3.245c2.587 2.293 1.666 8.773 1.671 8.994-.531 4.431-3.666 4.712-4.242 4.904-.247.082-2.533.67-5.404.478z" fill="#006058"/><path d="M9.856 3.918c-.35 0-.35.545 0 .55 2.716.02 4.952 1.914 4.977 5.385 0 .367.536.362.531-.004-.03-3.741-2.471-5.91-5.508-5.931z" fill="#006058"/><path d="M13.428 9.279c-.008.361.528.379.532.012.045-2.062-1.227-3.761-3.617-3.94-.35-.026-.386.524-.037.55 2.073.157 3.164 1.571 3.123 3.378zm-.573 2.346c-.449-.26-.906-.098-1.095.157l-.396.512c-.2.26-.576.226-.576.226-2.74-.725-3.473-3.592-3.473-3.592s-.033-.388.218-.597l.494-.409c.247-.196.404-.669.152-1.133-.673-1.216-1.125-1.635-1.355-1.957-.242-.302-.605-.37-.983-.166h-.009c-.786.46-1.647 1.32-1.371 2.207.47.935 1.333 3.914 4.086 6.165 1.294 1.064 3.341 2.155 4.21 2.407l.008.013c.857.285 1.69-.61 2.134-1.42v-.006c.197-.391.132-.762-.156-1.005-.511-.498-1.282-1.048-1.888-1.402z" fill="#006058"/><path d="M10.718 7.38c.873.05 1.297.507 1.342 1.444.017.367.548.341.532-.025-.058-1.224-.696-1.906-1.845-1.97-.35-.02-.383.53-.03.55z" fill="#006058"/></svg>