<svg width="21" height="21" fill="none" xmlns="http://www.w3.org/2000/svg"><path fill-rule="evenodd" clip-rule="evenodd" d="M17.668 3.02A10.23 10.23 0 0010.384 0C4.708 0 .089 4.62.086 10.296c0 1.815.474 3.587 1.375 5.149L0 20.78l5.459-1.432a10.286 10.286 0 004.92 1.254h.005c5.675 0 10.295-4.62 10.297-10.297a10.234 10.234 0 00-3.013-7.285zm-7.284 15.843h-.004a8.548 8.548 0 01-4.356-1.193l-.312-.186-3.24.85.865-3.158-.204-.324a8.537 8.537 0 01-1.308-4.555c.002-4.719 3.841-8.558 8.562-8.558a8.5 8.5 0 016.051 2.51 8.508 8.508 0 012.504 6.055c-.002 4.72-3.84 8.559-8.558 8.559zm4.694-6.41c-.257-.13-1.522-.751-1.758-.837-.236-.086-.407-.129-.579.129-.171.257-.664.837-.814 1.008-.15.172-.3.194-.558.065-.257-.13-1.086-.4-2.069-1.277-.765-.683-1.281-1.525-1.431-1.783-.15-.257-.002-.383.113-.525.278-.346.557-.708.643-.88.086-.172.043-.322-.022-.45-.064-.13-.579-1.396-.793-1.911-.209-.502-.42-.434-.579-.442a10.94 10.94 0 00-.493-.009.945.945 0 00-.686.322c-.236.258-.9.88-.9 2.147 0 1.266.921 2.49 1.05 2.661.129.172 1.814 2.77 4.395 3.885.614.266 1.093.424 1.467.542.617.196 1.177.168 1.62.102.495-.074 1.523-.622 1.737-1.223.215-.601.215-1.116.15-1.224-.064-.107-.235-.171-.493-.3z" fill="#006058"/></svg>