<svg width="22" height="14" fill="none" xmlns="http://www.w3.org/2000/svg"><path d="M21.882 12.105c-.899-1.617-3.213-3.56-4.169-4.405a.621.621 0 01-.051-.888c1.823-1.96 3.282-4.211 3.784-5.572.221-.6-.237-1.236-.883-1.236h-1.877c-.618 0-.98.223-1.153.576-1.515 3.106-2.815 4.45-3.725 5.235-.51.44-1.304.075-1.304-.594v-4.14c0-.574-.47-1.038-1.048-1.038L8.028.004a.52.52 0 00-.419.832l.566.812c.213.282.328.624.328.976L8.5 6.281c0 .637-.771.948-1.23.502C5.722 5.275 4.378 2.194 3.894.72A1.044 1.044 0 002.9.004L1.052 0C.358 0-.148.657.04 1.32 1.729 7.247 5.194 12.887 11.37 13.5a1.04 1.04 0 001.134-1.037V10.54c0-.551.432-1.025.988-1.04h.059c1.633 0 3.463 2.377 4.103 3.49.184.32.528.514.9.514h2.486c.726 0 1.191-.769.842-1.399z" fill="#006058"/></svg>