<svg width="218" height="79" fill="none" xmlns="http://www.w3.org/2000/svg"><path d="M100.912 16.86a.527.527 0 01-.125.333l-7.456 9.584a.506.506 0 01-.409.208.555.555 0 01-.381-.16.478.478 0 01-.173-.374.54.54 0 01.118-.325l3.464-4.47-3.465-4.463a.555.555 0 01-.117-.333.5.5 0 01.173-.374.554.554 0 01.381-.16.507.507 0 01.409.209l3.305 4.255 3.306-4.255a.514.514 0 01.416-.208.551.551 0 01.381.16.498.498 0 01.173.373zm7.456 9.591a.462.462 0 01-.313.512.469.469 0 01-.213.022.471.471 0 01-.534-.534v-9.064h-4.269v9.064a.522.522 0 01-.132.416.529.529 0 01-.616.132.529.529 0 01-.312-.548v-9.59a.51.51 0 01.159-.375c.1-.1.234-.157.375-.16h5.329a.463.463 0 01.526.527v9.598zm2.135 0v-9.59a.546.546 0 01.534-.534h2.661a3.202 3.202 0 012.266 5.46 3.105 3.105 0 01-2.266.936h-1.601a.467.467 0 01-.516-.327.456.456 0 01-.011-.22v4.261c0 .07-.014.14-.04.205a.545.545 0 01-.289.288.534.534 0 01-.738-.493v.014zm1.067-4.275a.468.468 0 01.313-.508.466.466 0 01.214-.02h1.601a2.138 2.138 0 002.019-2.137 2.14 2.14 0 00-2.019-2.138h-2.128v4.803zm16.715 4.296a.476.476 0 01-.173.36.577.577 0 01-.388.153.488.488 0 01-.465-.291l-1.469-2.931a.534.534 0 01-.187 0h-5.315a.534.534 0 01-.187 0l-1.469 2.93a.479.479 0 01-.458.292.577.577 0 01-.52-.318.489.489 0 01.021-.458l4.74-9.494a.551.551 0 01.527-.398.548.548 0 01.527.398l4.733 9.5a.51.51 0 01.083.257zm-3.022-3.749l-2.321-4.65-2.322 4.65h4.643zm10.825 1.067a3.195 3.195 0 01-3.195 3.195h-2.661a.55.55 0 01-.534-.534v-9.59a.55.55 0 01.534-.534h2.661a2.664 2.664 0 012.519 1.776 2.666 2.666 0 01-.849 2.964 3.004 3.004 0 011.525 2.723zm-1.587-4.802a1.606 1.606 0 00-1.608-1.6h-2.134v3.208h2.134a1.61 1.61 0 001.608-1.608zm.526 4.802a2.141 2.141 0 00-2.134-2.134h-2.134v4.269h2.134a2.155 2.155 0 002.134-2.135zm12.447 2.682a.449.449 0 01-.174.36.547.547 0 01-.381.153.487.487 0 01-.464-.291l-4.317-8.62-4.311 8.62a.485.485 0 01-.457.29.577.577 0 01-.395-.152.462.462 0 01-.173-.36.492.492 0 01.069-.256l4.74-9.501a.597.597 0 01.527-.388.576.576 0 01.519.395l4.747 9.494a.484.484 0 01.07.256zm7.809-.021a.462.462 0 01-.313.512.469.469 0 01-.213.022h-5.329a.55.55 0 01-.534-.534v-9.59a.55.55 0 01.534-.534h5.329a.466.466 0 01.395.136.463.463 0 01.131.397.467.467 0 01-.131.396.461.461 0 01-.395.131h-4.803v3.742h3.729a.471.471 0 01.54.527.482.482 0 01-.138.4.482.482 0 01-.402.133h-3.729v3.736h4.803a.463.463 0 01.526.526zm8.885 0a.538.538 0 01-.312.548.535.535 0 01-.749-.548v-4.276h-5.336v4.262a.534.534 0 11-1.067 0V16.86a.534.534 0 111.067 0v4.27h5.336v-4.27a.539.539 0 01.312-.547.536.536 0 01.749.547v9.591zm10.671-9.584v9.584a.534.534 0 11-1.067 0v-8.038l-6.452 8.315a.593.593 0 01-.457.278c-.374 0-.561-.18-.561-.54V16.86a.542.542 0 011.081 0v8.04l6.438-8.316a.593.593 0 01.471-.284.484.484 0 01.547.568zm8.524 9.584a.47.47 0 01-.527.534h-5.329a.547.547 0 01-.533-.534v-9.59a.546.546 0 01.533-.534h5.329a.472.472 0 01.527.533.468.468 0 01-.313.508.469.469 0 01-.214.02h-4.802v3.741h3.728a.469.469 0 01.519.311.48.48 0 01.022.216.482.482 0 01-.324.514.48.48 0 01-.217.02h-3.728v3.735h4.802a.466.466 0 01.527.526zM103.04 46.929a.465.465 0 01-.174.36.581.581 0 01-.388.153.48.48 0 01-.457-.291l-1.469-2.932a.874.874 0 01-.194 0h-5.309a.874.874 0 01-.194 0l-1.469 2.904a.478.478 0 01-.45.291.59.59 0 01-.523-.317.477.477 0 01-.045-.203.56.56 0 01.062-.256l4.747-9.494a.575.575 0 01.52-.388.582.582 0 01.526.395l4.747 9.494a.49.49 0 01.07.284zm-3.015-3.75l-2.314-4.65-2.329 4.65h4.643zm14.393 3.75a.461.461 0 01-.173.36.583.583 0 01-.388.153.476.476 0 01-.458-.291l-4.317-8.621-4.317 8.593a.478.478 0 01-.451.291.59.59 0 01-.395-.153.473.473 0 01-.173-.367.555.555 0 01.062-.25l4.747-9.5a.579.579 0 01.52-.388.582.582 0 01.527.395l4.74 9.521a.495.495 0 01.076.257zm7.81-2.682a3.217 3.217 0 01-3.194 3.195h-2.661a.57.57 0 01-.541-.534v-9.59a.534.534 0 111.067 0v3.727h2.128a3.21 3.21 0 013.201 3.202zm-1.067 0a2.125 2.125 0 00-1.316-1.974 2.13 2.13 0 00-.818-.16h-2.128v4.261h2.128a2.079 2.079 0 001.51-.623 2.073 2.073 0 00.624-1.504zm8.884 2.654a.531.531 0 01-.33.493.529.529 0 01-.581-.115.531.531 0 01-.156-.378v-9.057h-4.241V46.9a.531.531 0 01-.33.493.532.532 0 01-.738-.493v-9.584a.547.547 0 01.534-.533h5.329a.472.472 0 01.534.526l-.021 9.591zm10.672-9.577v9.577a.482.482 0 01-.317.518.482.482 0 01-.217.023.47.47 0 01-.526-.54V38.87l-6.452 8.315a.636.636 0 01-.464.277.488.488 0 01-.531-.32.488.488 0 01-.024-.22v-9.605a.48.48 0 01.134-.4.467.467 0 01.4-.133.472.472 0 01.541.533v8.039l6.444-8.316a.603.603 0 01.465-.277.48.48 0 01.547.561zm9.598 9.577a.482.482 0 01-.318.518.476.476 0 01-.216.023.472.472 0 01-.527-.54v-4.256h-5.343v4.255a.522.522 0 01-.132.416.529.529 0 01-.616.132.529.529 0 01-.312-.548v-9.584a.538.538 0 01.312-.547.534.534 0 01.748.547v4.262h5.343v-4.262a.466.466 0 01.527-.534.474.474 0 01.534.534v9.584zm10.665-9.577v9.577a.482.482 0 01-.318.518.476.476 0 01-.216.023.475.475 0 01-.399-.139.47.47 0 01-.127-.402V38.87l-6.452 8.316a.623.623 0 01-.464.277.487.487 0 01-.555-.54v-9.605a.479.479 0 01.133-.4.47.47 0 01.401-.133.472.472 0 01.54.533v8.039l6.445-8.316a.594.594 0 01.464-.277.479.479 0 01.548.561zm10.685 8.191a.536.536 0 01-.173.36 4.272 4.272 0 01-1.711 1.165 5.735 5.735 0 01-2.045.402 5.325 5.325 0 01-4.923-3.29 5.326 5.326 0 012.884-6.963 5.325 5.325 0 012.039-.405 5.592 5.592 0 012.045.402c.655.24 1.242.634 1.711 1.15a.598.598 0 01.173.381.513.513 0 01-.166.381.531.531 0 01-.388.166.595.595 0 01-.367-.166c-.104-.097-.27-.242-.499-.43a4.02 4.02 0 00-2.543-.824 4.27 4.27 0 100 8.53 4.012 4.012 0 002.515-.817c.111-.097.277-.243.499-.423a.575.575 0 01.367-.173.538.538 0 01.388.166.521.521 0 01.194.388zm8.164-8.198a.473.473 0 01-.534.527h-2.661V46.9a.534.534 0 11-1.067 0v-9.057h-2.654a.533.533 0 110-1.06h6.389a.475.475 0 01.508.32.485.485 0 01.019.213zm9.618 8.198a.566.566 0 01-.166.36 4.297 4.297 0 01-1.719 1.165 5.67 5.67 0 01-2.079.402 5.33 5.33 0 010-10.658 5.54 5.54 0 012.079.402c.657.24 1.247.634 1.719 1.15a.632.632 0 01.166.381.53.53 0 01-.166.381.515.515 0 01-.381.166.6.6 0 01-.368-.166l-.498-.43a4.05 4.05 0 00-2.516-.824 4.27 4.27 0 100 8.53 4.043 4.043 0 002.516-.817c.103-.097.27-.243.498-.423a.577.577 0 01.368-.173.517.517 0 01.381.166.534.534 0 01.166.388zm8.358 1.386a.542.542 0 01-.159.374.55.55 0 01-.382.167.524.524 0 01-.374-.167l-4.795-4.781a.564.564 0 01-.16-.284v4.69a.534.534 0 11-1.067 0v-9.584a.534.534 0 111.067 0v4.699a.54.54 0 01.16-.277l4.795-4.796a.503.503 0 01.374-.16.525.525 0 01.382.16.544.544 0 01.118.585.498.498 0 01-.118.17l-4.415 4.415 4.415 4.414a.497.497 0 01.118.17.494.494 0 01.041.204zm9.965-9.577v9.577a.482.482 0 01-.317.518.482.482 0 01-.217.023.47.47 0 01-.526-.54V38.87l-6.452 8.315a.623.623 0 01-.464.277.487.487 0 01-.555-.54v-9.605a.479.479 0 01.133-.4.47.47 0 01.401-.133.472.472 0 01.54.533v8.039l6.445-8.316a.594.594 0 01.464-.277.479.479 0 01.548.561zm9.972 9.584a.501.501 0 01-.174.374.567.567 0 01-.388.16.507.507 0 01-.408-.208l-3.334-4.269-3.305 4.248a.51.51 0 01-.409.208.567.567 0 01-.388-.16.524.524 0 01-.173-.374.49.49 0 01.124-.325l3.465-4.477-3.465-4.456a.526.526 0 01-.124-.332.489.489 0 01.173-.375.54.54 0 01.617-.104.508.508 0 01.18.153l3.305 4.269 3.306-4.248a.505.505 0 01.409-.208.542.542 0 01.388.159.478.478 0 01.173.374.49.49 0 01-.125.326l-3.465 4.463 3.465 4.476a.505.505 0 01.153.326zM103.04 67.379a.477.477 0 01-.174.367.576.576 0 01-.388.146.471.471 0 01-.457-.284l-4.31-8.628-4.318 8.628a.472.472 0 01-.45.284.582.582 0 01-.523-.31.48.48 0 01-.046-.203.587.587 0 01.063-.257l4.747-9.493a.548.548 0 011.046 0l4.747 9.5a.485.485 0 01.063.25zm11.378 0a.462.462 0 01-.173.367.576.576 0 01-.388.146.474.474 0 01-.458-.284l-1.469-2.939a.596.596 0 01-.194 0h-5.308a.596.596 0 01-.194 0l-1.469 2.939a.475.475 0 01-.451.284.557.557 0 01-.395-.153.474.474 0 01-.173-.367.585.585 0 01.062-.257l4.747-9.486a.552.552 0 01.524-.387.546.546 0 01.523.387l4.74 9.5a.481.481 0 01.076.25zm-3.014-3.742l-2.322-4.657-2.328 4.657h4.65zm10.824-5.87a.47.47 0 01-.526.534h-4.803v9.057a.534.534 0 11-1.067 0v-9.584a.57.57 0 01.541-.54h5.329a.467.467 0 01.507.32.47.47 0 01.019.213zm7.457 9.591a.474.474 0 01-.527.534h-5.336a.546.546 0 01-.533-.534v-9.584a.552.552 0 01.533-.54h5.336a.532.532 0 01.377.91c-.1.1-.235.157-.377.157h-4.802v3.735h3.728a.532.532 0 01.534.533.534.534 0 01-.534.534h-3.728v3.728h4.802a.462.462 0 01.508.314.468.468 0 01.019.213zm1.42 0v-9.584a.558.558 0 01.534-.54h2.661a3.203 3.203 0 012.264 5.465c-.601.6-1.415.938-2.264.938h-1.601a.47.47 0 01-.534-.534v4.255a.458.458 0 01-.11.403.455.455 0 01-.389.151.47.47 0 01-.561-.554zm1.06-4.255a.48.48 0 01.134-.4.467.467 0 01.4-.134h1.601a2.079 2.079 0 001.51-.623 2.073 2.073 0 00.624-1.504 2.133 2.133 0 00-.62-1.516 2.135 2.135 0 00-1.514-.625h-2.135v4.802zm13.146 4.255a.463.463 0 01-.526.534h-5.329a.549.549 0 01-.534-.534v-9.584a.48.48 0 01.159-.374.5.5 0 01.375-.166h5.329a.534.534 0 010 1.067h-4.803v3.735h3.736a.534.534 0 010 1.067h-3.736v3.728h4.803a.465.465 0 01.526.527zm9.966-9.577v9.577a.48.48 0 01-.134.4.467.467 0 01-.4.134.463.463 0 01-.511-.318.477.477 0 01-.016-.216v-8.032l-6.451 8.316a.606.606 0 01-.465.277.484.484 0 01-.554-.54v-9.612a.479.479 0 01.133-.4.472.472 0 01.401-.133.476.476 0 01.52.322c.024.07.031.145.02.218v8.06l6.445-8.316a.602.602 0 01.464-.285.485.485 0 01.548.548zm-2.079-3.209a.883.883 0 01-.298.527 2.73 2.73 0 01-1.851 1.074 2.14 2.14 0 01-1.129-.422 3.363 3.363 0 01-.929-.846.584.584 0 01-.124-.333.518.518 0 01.173-.374.54.54 0 01.381-.16c.139 0 .381.181.728.535a.95.95 0 00.859.536.955.955 0 00.859-.537c.34-.353.582-.533.728-.533a.55.55 0 01.388.16.497.497 0 01.166.373h.049z" fill="#fff"/><path fill-rule="evenodd" clip-rule="evenodd" d="M20.479 4.034c3.9-1.891 7.345-2.987 11.42-3.633 3.551-.562 9.05-.53 12.597.074 8.52 1.451 15.789 5.23 21.8 11.334 9.251 9.391 13.15 22.662 10.508 35.77-.873 4.332-3.174 9.844-5.695 13.647-3.072 4.634-7.71 9.117-12.374 11.957C39.055 85.17 13.376 77.987 2.818 57.54c-1.178-2.28-1.302-2.825-.843-3.677.155-.285 6.158-6.374 13.341-13.531 8.857-8.823 13.232-13.053 13.59-13.14 1.271-.305 2.265.433 2.265 1.681 0 .789-.076.882-3.613 4.422A6784.755 6784.755 0 0014.86 46.079l-9.087 9.167.552 1.09c1.603 3.169 4.9 7.326 7.919 9.986 10.194 8.982 24.85 11.497 37.25 6.392 11.463-4.718 19.42-14.444 21.903-26.769.385-1.913.445-2.78.442-6.44-.002-5.016-.35-7.28-1.749-11.413-4.156-12.275-14.316-21.235-27.04-23.85-4.005-.823-9.85-.825-13.886-.004-11.712 2.38-21.506 10.319-26.2 21.236-.526 1.221-.956 2.325-.956 2.451 0 .127 2.248 2.482 4.996 5.233 3.248 3.252 5.041 5.188 5.127 5.535.159.645-.2 1.588-.753 1.974-.22.154-.704.28-1.073.28-.624 0-1.085-.41-6.418-5.718C2.548 31.906.09 29.309.019 29.031c-.249-.979 2.107-6.666 4.182-10.093C8.007 12.651 13.968 7.192 20.48 4.034zm23.317 32.25l5.932-5.938 18.877 18.897a1.857 1.857 0 002.626-2.626L51.045 26.403a1.864 1.864 0 00-2.627 0L41.17 33.65a1.86 1.86 0 102.626 2.634zm-4.345.153l-5.35-5.35a1.858 1.858 0 00-3.034 2.024c.095.226.234.43.408.603l2.176 2.176h-6.07a1.864 1.864 0 000 3.721h9.784l4.782 4.775a1.851 1.851 0 003.168-1.314c0-.492-.195-.964-.541-1.313l-5.323-5.322z" fill="#fff"/></svg>