<svg width="200" height="200" viewBox="0 0 200 200" fill="none" xmlns="http://www.w3.org/2000/svg">
<circle cx="102.5" cy="102.5" r="97.5" fill="url(#paint0_linear)"/>
<circle cx="97.5" cy="97.5" r="97.5" fill="white"/>
<path fill-rule="evenodd" clip-rule="evenodd" d="M65.0318 34.098C71.8935 30.7697 77.9558 28.8413 85.1269 27.706C91.375 26.7167 101.05 26.7735 107.291 27.8362C122.282 30.3889 135.071 37.0373 145.649 47.777C161.925 64.3013 168.783 87.6523 164.136 110.715C162.599 118.337 158.552 128.036 154.116 134.727C148.71 142.881 140.549 150.767 132.344 155.765C97.7183 176.857 52.5357 164.218 33.9585 128.244C31.8864 124.231 31.6668 123.273 32.4759 121.774C32.747 121.272 43.3098 110.558 55.949 97.9655C71.5315 82.4409 79.2293 74.9981 79.8615 74.8465C82.0962 74.3102 83.8443 75.6082 83.8443 77.8041C83.8443 79.1914 83.711 79.3548 77.4887 85.5838C73.9933 89.0832 63.9387 99.2043 55.1453 108.075L39.1575 124.204L40.129 126.124C42.9491 131.699 48.7498 139.013 54.062 143.694C71.9985 159.497 97.7854 163.922 119.605 154.94C139.772 146.638 153.772 129.526 158.141 107.84C158.819 104.474 158.924 102.949 158.92 96.5102C158.915 87.6838 158.304 83.6984 155.842 76.428C148.529 54.8306 130.653 39.0642 108.263 34.4643C101.216 33.0164 90.9309 33.0131 83.8307 34.4565C63.2238 38.6458 45.9916 52.6127 37.7315 71.821C36.8068 73.9706 36.0506 75.9115 36.0506 76.1344C36.0506 76.3573 40.0059 80.5003 44.8405 85.341C50.5558 91.0641 53.7112 94.4705 53.8613 95.0793C54.1413 96.2146 53.5088 97.8742 52.5377 98.5529C52.1489 98.8245 51.2988 99.0467 50.6483 99.0467C49.5504 99.0467 48.7406 98.3253 39.3561 88.9852C33.4819 83.1386 29.1567 78.5702 29.032 78.0798C28.5937 76.3576 32.7396 66.3515 36.3902 60.3213C43.0874 49.2587 53.577 39.655 65.0318 34.098ZM106.058 90.8427L116.495 80.3933L149.709 113.644C150.323 114.249 151.152 114.588 152.015 114.585C152.878 114.582 153.704 114.238 154.314 113.627C154.924 113.017 155.268 112.191 155.271 111.328C155.274 110.466 154.936 109.637 154.33 109.022L118.812 73.4555C118.198 72.8457 117.367 72.5035 116.501 72.5035C115.636 72.5035 114.805 72.8457 114.191 73.4555L101.437 86.2094C100.823 86.8222 100.477 87.6539 100.476 88.5217C100.474 89.3895 100.818 90.2222 101.431 90.8366C102.044 91.451 102.875 91.7968 103.743 91.798C104.611 91.7991 105.444 91.4555 106.058 90.8427ZM98.4148 91.1109L89.0019 81.698C88.6992 81.391 88.3388 81.147 87.9415 80.98C87.5441 80.813 87.1176 80.7262 86.6866 80.7247C86.2555 80.7232 85.8284 80.807 85.4299 80.9712C85.0314 81.1355 84.6693 81.377 84.3645 81.6818C84.0597 81.9866 83.8183 82.3486 83.654 82.7472C83.4897 83.1457 83.406 83.5728 83.4075 84.0038C83.409 84.4348 83.4957 84.8613 83.6628 85.2587C83.8298 85.656 84.0738 86.0164 84.3807 86.3191L88.2093 90.1477H77.5283C76.6945 90.1986 75.9116 90.5657 75.3393 91.174C74.7669 91.7824 74.4482 92.5862 74.4482 93.4215C74.4482 94.2568 74.7669 95.0606 75.3393 95.669C75.9116 96.2773 76.6945 96.6444 77.5283 96.6953H94.7448L103.158 105.096C103.461 105.401 103.82 105.643 104.217 105.808C104.614 105.973 105.039 106.058 105.468 106.058C105.898 106.058 106.323 105.973 106.72 105.808C107.116 105.643 107.476 105.401 107.779 105.096C108.389 104.482 108.731 103.651 108.731 102.786C108.731 101.92 108.389 101.09 107.779 100.475L98.4148 91.1109Z" fill="#00B3A4"/>
<defs>
<linearGradient id="paint0_linear" x1="102.5" y1="5" x2="102.5" y2="200" gradientUnits="userSpaceOnUse">
<stop stop-color="#CCCCCC"/>
<stop offset="1" stop-color="#8F8F8F"/>
</linearGradient>
</defs>
</svg>
