<svg width="910" height="174" viewBox="0 0 910 174" fill="none" xmlns="http://www.w3.org/2000/svg">
<path d="M0 0H900L910 10V174H10L0 164V0Z" fill="#00665E"/>
<rect width="900" height="164" fill="#00B2A4"/>
<path d="M97.5 164L78.5 134.5L86 102L97.5 65L110.5 47L127 50.5L155.5 75.5L164.5 65L179.5 47L203.5 50.5L224.5 75.5L250 50.5H286L302 65L318.5 59L357.5 40.5L371 50.5L388.5 98.5L418 113.5L456 164H97.5Z" fill="#008F84"/>
<path d="M475.5 164L440.5 115.5L457.5 102L469 65L482 47L498.5 50.5L527 75.5L536 65L551 47L575 50.5L607 40.5L621.5 50.5H657.5L673.5 65L690 59L729 40.5L742.5 50.5L787 59L826.5 110L869 164H475.5Z" fill="#008F84"/>
<path fill-rule="evenodd" clip-rule="evenodd" d="M142.304 134.8H162.2V108.15C163.022 109.465 163.925 110.716 164.913 111.901L164.932 111.924L164.952 111.947C168.185 115.732 172.158 118.67 176.802 120.76L176.848 120.78L176.893 120.8C181.701 122.849 187.126 123.8 193.054 123.8C198.589 123.8 203.733 122.913 208.411 121.042L208.444 121.029L208.477 121.015C213.12 119.081 217.133 116.3 220.446 112.671L220.464 112.652L220.482 112.632C223.798 108.922 226.249 104.465 227.901 99.371C228.523 97.5255 229.028 95.6093 229.42 93.6254C229.933 96.2323 230.647 98.6877 231.577 100.98C233.674 106.147 236.554 110.55 240.293 114.05L240.312 114.068L240.332 114.086C244.048 117.493 248.3 119.993 253.052 121.551L253.064 121.555L253.075 121.559C257.719 123.056 262.537 123.8 267.51 123.8C271.619 123.8 275.639 123.405 279.565 122.608C283.606 121.855 282.054 122.553 285 120.5L286 116.5L291.652 122.4H316.452V97.48L329.5 116.5L335.479 122.4H373.627L379.327 107.5H396.11V116.5L402.11 122.4H428.504L397.103 41.9L391 36L379.366 41.9L354.224 106.59L334.309 80.7949L333.921 80.5363L334.116 80.4086L362.914 42.4L357 36.5L333.384 42.4L316.452 66.0242V42.4L310 36.5L291.652 42.4V45.4167L287.983 44.025C285.66 43.1437 282.868 42.4434 279.695 41.8788C276.369 41.275 272.417 41 267.91 41C263.433 41 258.932 41.722 254.423 43.1262C249.692 44.5997 245.4 47.0026 241.572 50.2902C237.591 53.6407 234.45 58.0034 232.067 63.2112C230.908 65.7134 230.042 68.4319 229.444 71.3472C229.099 69.563 228.663 67.8256 228.135 66.1366C226.627 61.0983 224.291 56.6476 221.076 52.8763C217.884 49.054 213.88 46.1396 209.16 44.1199C204.395 41.9848 198.983 41 193.054 41C187.45 41 182.259 41.9205 177.564 43.8708C172.88 45.7499 168.845 48.5534 165.526 52.2683L165.521 52.2731C162.258 55.9345 159.843 60.3717 158.197 65.4609C156.54 70.5806 155.754 76.2469 155.754 82.4C155.754 88.2094 156.471 93.6327 157.963 98.6302C158.04 98.8883 158.119 99.1449 158.2 99.4H152.6V42.4L146.5 36.5L96.9291 42.4L97.0005 47.4704C97.1317 56.7825 96.7685 64.7047 95.9394 71.2739L95.9367 71.2948L95.9342 71.3158C95.1488 77.9918 94.2124 83.4722 93.1452 87.8039C92.0405 92.2877 90.9961 95.4678 90.0566 97.5125C89.7252 98.2339 89.428 98.8616 89.1642 99.4H79L73 129L79 134.8H98.8963L100.496 122.4H135.5L136.5 129L142.304 134.8ZM254.11 82.4C254.11 78.87 254.528 75.9846 255.26 73.6639C256.081 71.2712 257.135 69.4738 258.333 68.1377C259.547 66.784 260.961 65.8063 262.622 65.16L262.656 65.1471L262.689 65.1337C264.487 64.4045 266.573 64 269.01 64C272.276 64 274.802 64.1619 276.661 64.4436L276.672 64.4452L276.683 64.4468C278.615 64.7309 280.13 65.1632 281.296 65.6766L286.808 68.1015L291.652 47.3862V111.118L287.725 95.1365L282.04 98.1976C280.71 98.9136 279.088 99.5484 277.131 100.066L277.113 100.071L277.095 100.076C275.464 100.521 273.207 100.8 270.21 100.8C267.205 100.8 264.794 100.318 262.866 99.4983C260.87 98.6501 259.33 97.505 258.141 96.0869C256.888 94.5927 255.889 92.7441 255.196 90.4531C254.492 88.1227 254.11 85.4519 254.11 82.4ZM201.614 68.35L201.663 68.428L201.714 68.5042C202.692 69.9475 203.47 71.7857 203.96 74.1243C204.481 76.6116 204.754 79.3646 204.754 82.4C204.754 90.4742 203.294 95.0126 201.478 97.2416C199.629 99.5109 197.045 100.8 193.054 100.8C190.869 100.8 189.212 100.375 187.928 99.6996C186.636 98.9846 185.552 97.9784 184.655 96.5894C183.689 95.0909 182.885 93.1808 182.324 90.7674C181.757 88.3309 181.454 85.5509 181.454 82.4C181.454 74.6646 182.887 70.1052 184.785 67.6891C186.672 65.288 189.221 64 193.054 64C195.394 64 197.011 64.4664 198.143 65.1239L198.225 65.1713L198.308 65.2156C199.633 65.9195 200.726 66.9292 201.614 68.35ZM388.806 85.8H387.138L387.967 83.5311L388.806 85.8ZM445.559 122.4H470.359V65.4H487.159L481.5 116.5L487.159 122.4H511.959V42.4L505.5 36.5L445.559 42.4L439.5 116.5L445.559 122.4ZM522.264 52.2683L522.26 52.2731C518.996 55.9345 516.581 60.3717 514.935 65.4609C513.279 70.5806 512.492 76.2468 512.492 82.4C512.492 88.2094 513.209 93.6327 514.701 98.6302C516.205 103.668 518.502 108.122 521.651 111.901L521.671 111.924L521.69 111.947C524.923 115.732 528.897 118.67 533.54 120.76L533.586 120.78L533.632 120.8C538.439 122.849 543.864 123.8 549.792 123.8C555.327 123.8 560.472 122.913 565.149 121.042L565.182 121.029L565.215 121.015C569.859 119.081 573.871 116.3 577.185 112.671L577.203 112.652L577.22 112.632C580.536 108.922 582.987 104.465 584.639 99.371C586.339 94.3325 587.162 88.7675 587.191 82.7358C587.377 83.3288 587.584 83.9099 587.815 84.4785C589.073 87.5814 590.894 90.2748 593.327 92.4371C595.705 94.5509 598.508 96.078 601.643 97.0679L601.7 97.0861L601.758 97.1028C604.81 97.9862 608.086 98.4 611.548 98.4C616.231 98.4 620.458 97.9765 624.161 97.0507L624.196 97.042L624.231 97.0328C624.678 96.9142 625.117 96.793 625.548 96.6693L619.5 116L625.548 122.4H650.348V42.4L644 36.5L625.548 42.4V74.7282C625.017 74.9372 624.382 75.1406 623.628 75.3266C621.561 75.7683 619.306 76 616.848 76C613.697 76 612.591 75.1781 612.179 74.6869C611.47 73.8409 610.748 72.1912 610.748 69V42.4L604.5 36.5L585.948 42.4V70.2092C585.647 68.8231 585.289 67.4662 584.874 66.139C583.365 61.099 581.029 56.6468 577.813 52.8745C574.622 49.0531 570.618 46.1393 565.898 44.1199C561.133 41.9848 555.721 41 549.792 41C544.189 41 538.998 41.9204 534.303 43.8706C529.619 45.7496 525.584 48.5532 522.264 52.2683ZM558.352 68.35L558.401 68.428L558.453 68.5042C559.43 69.9475 560.209 71.7857 560.698 74.1243C561.219 76.6116 561.492 79.3646 561.492 82.4C561.492 90.4742 560.032 95.0126 558.216 97.2416C556.367 99.5109 553.783 100.8 549.792 100.8C547.608 100.8 545.951 100.375 544.667 99.6999C543.375 98.9849 542.29 97.9786 541.394 96.5894C540.427 95.0909 539.623 93.1808 539.062 90.7674C538.496 88.3309 538.192 85.5509 538.192 82.4C538.192 74.6646 539.625 70.1052 541.524 67.6891C543.41 65.288 545.959 64 549.792 64C552.133 64 553.749 64.4664 554.882 65.1239L554.963 65.1713L555.046 65.2156C556.371 65.9195 557.464 66.9292 558.352 68.35ZM773.912 42.4L768 36.5L653.371 42.4L650.348 118.5L653.371 122.4H708.971V99.4L703 93.6L678.171 99.4V93.6H705.671V70.6L699.5 65.4L678.171 70.6V65.4H726.912L721 116.5L726.912 122.4H751.712V65.4H773.912V42.4ZM779.78 122.4L785.48 107.5H802.262L802.5 116.5L808.262 122.4H834.656L803.256 41.9L797 36L785.518 41.9L751.712 114V118L754.231 122.4H779.78ZM794.959 85.8H793.29L794.12 83.5311L794.959 85.8ZM120.586 65.4C120.079 74.9174 119.091 83.033 117.581 89.6868C116.786 93.3244 115.961 96.5781 115.091 99.4H127.8V65.4H120.586Z" fill="url(#paint0_linear)"/>
<mask id="path-6-outside-1" maskUnits="userSpaceOnUse" x="73" y="35" width="756" height="94" fill="black">
<rect fill="white" x="73" y="35" width="756" height="94"/>
<path d="M151.2 123.8H140.7L139.1 111.4H90.1L88.5 123.8H78V98.4H86.1C86.6333 97.6667 87.4667 96.0667 88.6 93.6C89.7333 91.1333 90.8667 87.6 92 83C93.1333 78.4 94.1 72.7 94.9 65.9C95.7667 59.0333 96.1333 50.8667 96 41.4H141.6V98.4H151.2V123.8ZM126.8 98.4V54.4H109.8C109.4 65.8667 108.367 75.2667 106.7 82.6C105.1 89.9333 103.467 95.2 101.8 98.4H126.8Z"/>
<path d="M154.754 76.4C154.754 70.6667 155.487 65.5333 156.954 61C158.421 56.4667 160.521 52.6667 163.254 49.6C166.054 46.4667 169.454 44.1 173.454 42.5C177.454 40.8333 181.987 40 187.054 40C192.454 40 197.154 40.9 201.154 42.7C205.221 44.4333 208.587 46.9 211.254 50.1C213.987 53.3 216.021 57.1333 217.354 61.6C218.754 66.0667 219.454 71 219.454 76.4C219.454 82.1333 218.687 87.2667 217.154 91.8C215.687 96.3333 213.554 100.167 210.754 103.3C207.954 106.367 204.554 108.733 200.554 110.4C196.554 112 192.054 112.8 187.054 112.8C181.654 112.8 176.921 111.933 172.854 110.2C168.854 108.4 165.487 105.9 162.754 102.7C160.087 99.5 158.087 95.6667 156.754 91.2C155.421 86.7333 154.754 81.8 154.754 76.4ZM170.454 76.4C170.454 79.8667 170.787 83.0333 171.454 85.9C172.121 88.7667 173.121 91.2333 174.454 93.3C175.787 95.3667 177.487 96.9667 179.554 98.1C181.687 99.2333 184.187 99.8 187.054 99.8C192.321 99.8 196.421 98 199.354 94.4C202.287 90.8 203.754 84.8 203.754 76.4C203.754 73.0667 203.454 69.9667 202.854 67.1C202.254 64.2333 201.254 61.7667 199.854 59.7C198.521 57.5667 196.787 55.9333 194.654 54.8C192.587 53.6 190.054 53 187.054 53C181.854 53 177.787 54.8667 174.854 58.6C171.921 62.3333 170.454 68.2667 170.454 76.4Z"/>
<path d="M281.31 108.4C279.11 109.933 276.21 111.033 272.61 111.7C269.01 112.433 265.31 112.8 261.51 112.8C257.044 112.8 252.743 112.133 248.61 110.8C244.543 109.467 240.91 107.333 237.71 104.4C234.577 101.467 232.077 97.7 230.21 93.1C228.343 88.5 227.41 82.9333 227.41 76.4C227.41 69.6 228.477 63.9 230.61 59.3C232.743 54.6333 235.477 50.9 238.81 48.1C242.143 45.2333 245.843 43.1667 249.91 41.9C253.977 40.6333 257.977 40 261.91 40C266.243 40 269.877 40.2667 272.81 40.8C275.81 41.3333 278.277 41.9667 280.21 42.7L277.31 55.1C275.643 54.3667 273.677 53.8333 271.41 53.5C269.21 53.1667 266.41 53 263.01 53C260.01 53 257.277 53.5 254.81 54.5C252.41 55.4333 250.343 56.8667 248.61 58.8C246.877 60.7333 245.51 63.1667 244.51 66.1C243.577 69.0333 243.11 72.4667 243.11 76.4C243.11 79.8667 243.543 83.0333 244.41 85.9C245.277 88.7667 246.577 91.2333 248.31 93.3C250.043 95.3667 252.243 96.9667 254.91 98.1C257.577 99.2333 260.677 99.8 264.21 99.8C267.477 99.8 270.21 99.5 272.41 98.9C274.677 98.3 276.677 97.5333 278.41 96.6L281.31 108.4Z"/>
<path d="M309.352 81.8H305.452V111.4H290.652V41.4H305.452V72.2L308.952 70.7L329.952 41.4H346.852L324.652 70.7L318.852 74.5L324.852 78.5L350.252 111.4H331.952L309.352 81.8Z"/>
<path d="M393.487 96.5H369.887L364.187 111.4H349.387L376.787 40.9H387.687L415.187 111.4H399.487L393.487 96.5ZM373.987 84.8H389.987L384.587 70.2L382.187 59.1H381.687L379.287 70.3L373.987 84.8Z"/>
<path d="M486.159 54.4H459.359V111.4H444.559V41.4H500.959V111.4H486.159V54.4Z"/>
<path d="M511.492 76.4C511.492 70.6667 512.226 65.5333 513.692 61C515.159 56.4667 517.259 52.6667 519.992 49.6C522.792 46.4667 526.192 44.1 530.192 42.5C534.192 40.8333 538.725 40 543.792 40C549.192 40 553.892 40.9 557.892 42.7C561.959 44.4333 565.326 46.9 567.992 50.1C570.726 53.3 572.759 57.1333 574.092 61.6C575.492 66.0667 576.192 71 576.192 76.4C576.192 82.1333 575.426 87.2667 573.892 91.8C572.426 96.3333 570.292 100.167 567.492 103.3C564.692 106.367 561.292 108.733 557.292 110.4C553.292 112 548.792 112.8 543.792 112.8C538.392 112.8 533.659 111.933 529.592 110.2C525.592 108.4 522.226 105.9 519.492 102.7C516.826 99.5 514.826 95.6667 513.492 91.2C512.159 86.7333 511.492 81.8 511.492 76.4ZM527.192 76.4C527.192 79.8667 527.526 83.0333 528.192 85.9C528.859 88.7667 529.859 91.2333 531.192 93.3C532.526 95.3667 534.225 96.9667 536.292 98.1C538.426 99.2333 540.926 99.8 543.792 99.8C549.059 99.8 553.159 98 556.092 94.4C559.026 90.8 560.492 84.8 560.492 76.4C560.492 73.0667 560.192 69.9667 559.592 67.1C558.992 64.2333 557.992 61.7667 556.592 59.7C555.259 57.5667 553.526 55.9333 551.392 54.8C549.326 53.6 546.792 53 543.792 53C538.592 53 534.526 54.8667 531.592 58.6C528.659 62.3333 527.192 68.2667 527.192 76.4Z"/>
<path d="M599.748 41.4V63C599.748 66.8667 600.615 69.8333 602.348 71.9C604.082 73.9667 606.915 75 610.848 75C613.648 75 616.282 74.7333 618.748 74.2C621.215 73.6 623.148 72.7333 624.548 71.6V41.4H639.348V111.4H624.548V83.4C622.748 84.4 620.215 85.3333 616.948 86.2C613.748 87 609.948 87.4 605.548 87.4C602.482 87.4 599.682 87.0333 597.148 86.3C594.615 85.5 592.448 84.3 590.648 82.7C588.848 81.1 587.448 79.0667 586.448 76.6C585.448 74.1333 584.948 71.2 584.948 67.8V41.4H599.748Z"/>
<path d="M652.371 41.4H697.471V54.4H667.171V69.6H694.671V82.6H667.171V98.4H697.971V111.4H652.371V41.4Z"/>
<path d="M762.912 54.4H740.712V111.4H725.912V54.4H703.712V41.4H762.912V54.4Z"/>
<path d="M799.639 96.5H776.039L770.339 111.4H755.539L782.939 40.9H793.839L821.339 111.4H805.639L799.639 96.5ZM780.139 84.8H796.139L790.739 70.2L788.339 59.1H787.839L785.439 70.3L780.139 84.8Z"/>
</mask>
<path d="M151.2 123.8H140.7L139.1 111.4H90.1L88.5 123.8H78V98.4H86.1C86.6333 97.6667 87.4667 96.0667 88.6 93.6C89.7333 91.1333 90.8667 87.6 92 83C93.1333 78.4 94.1 72.7 94.9 65.9C95.7667 59.0333 96.1333 50.8667 96 41.4H141.6V98.4H151.2V123.8ZM126.8 98.4V54.4H109.8C109.4 65.8667 108.367 75.2667 106.7 82.6C105.1 89.9333 103.467 95.2 101.8 98.4H126.8Z" fill="url(#paint1_linear)"/>
<path d="M154.754 76.4C154.754 70.6667 155.487 65.5333 156.954 61C158.421 56.4667 160.521 52.6667 163.254 49.6C166.054 46.4667 169.454 44.1 173.454 42.5C177.454 40.8333 181.987 40 187.054 40C192.454 40 197.154 40.9 201.154 42.7C205.221 44.4333 208.587 46.9 211.254 50.1C213.987 53.3 216.021 57.1333 217.354 61.6C218.754 66.0667 219.454 71 219.454 76.4C219.454 82.1333 218.687 87.2667 217.154 91.8C215.687 96.3333 213.554 100.167 210.754 103.3C207.954 106.367 204.554 108.733 200.554 110.4C196.554 112 192.054 112.8 187.054 112.8C181.654 112.8 176.921 111.933 172.854 110.2C168.854 108.4 165.487 105.9 162.754 102.7C160.087 99.5 158.087 95.6667 156.754 91.2C155.421 86.7333 154.754 81.8 154.754 76.4ZM170.454 76.4C170.454 79.8667 170.787 83.0333 171.454 85.9C172.121 88.7667 173.121 91.2333 174.454 93.3C175.787 95.3667 177.487 96.9667 179.554 98.1C181.687 99.2333 184.187 99.8 187.054 99.8C192.321 99.8 196.421 98 199.354 94.4C202.287 90.8 203.754 84.8 203.754 76.4C203.754 73.0667 203.454 69.9667 202.854 67.1C202.254 64.2333 201.254 61.7667 199.854 59.7C198.521 57.5667 196.787 55.9333 194.654 54.8C192.587 53.6 190.054 53 187.054 53C181.854 53 177.787 54.8667 174.854 58.6C171.921 62.3333 170.454 68.2667 170.454 76.4Z" fill="url(#paint2_linear)"/>
<path d="M281.31 108.4C279.11 109.933 276.21 111.033 272.61 111.7C269.01 112.433 265.31 112.8 261.51 112.8C257.044 112.8 252.743 112.133 248.61 110.8C244.543 109.467 240.91 107.333 237.71 104.4C234.577 101.467 232.077 97.7 230.21 93.1C228.343 88.5 227.41 82.9333 227.41 76.4C227.41 69.6 228.477 63.9 230.61 59.3C232.743 54.6333 235.477 50.9 238.81 48.1C242.143 45.2333 245.843 43.1667 249.91 41.9C253.977 40.6333 257.977 40 261.91 40C266.243 40 269.877 40.2667 272.81 40.8C275.81 41.3333 278.277 41.9667 280.21 42.7L277.31 55.1C275.643 54.3667 273.677 53.8333 271.41 53.5C269.21 53.1667 266.41 53 263.01 53C260.01 53 257.277 53.5 254.81 54.5C252.41 55.4333 250.343 56.8667 248.61 58.8C246.877 60.7333 245.51 63.1667 244.51 66.1C243.577 69.0333 243.11 72.4667 243.11 76.4C243.11 79.8667 243.543 83.0333 244.41 85.9C245.277 88.7667 246.577 91.2333 248.31 93.3C250.043 95.3667 252.243 96.9667 254.91 98.1C257.577 99.2333 260.677 99.8 264.21 99.8C267.477 99.8 270.21 99.5 272.41 98.9C274.677 98.3 276.677 97.5333 278.41 96.6L281.31 108.4Z" fill="url(#paint3_linear)"/>
<path d="M309.352 81.8H305.452V111.4H290.652V41.4H305.452V72.2L308.952 70.7L329.952 41.4H346.852L324.652 70.7L318.852 74.5L324.852 78.5L350.252 111.4H331.952L309.352 81.8Z" fill="url(#paint4_linear)"/>
<path d="M393.487 96.5H369.887L364.187 111.4H349.387L376.787 40.9H387.687L415.187 111.4H399.487L393.487 96.5ZM373.987 84.8H389.987L384.587 70.2L382.187 59.1H381.687L379.287 70.3L373.987 84.8Z" fill="url(#paint5_linear)"/>
<path d="M486.159 54.4H459.359V111.4H444.559V41.4H500.959V111.4H486.159V54.4Z" fill="url(#paint6_linear)"/>
<path d="M511.492 76.4C511.492 70.6667 512.226 65.5333 513.692 61C515.159 56.4667 517.259 52.6667 519.992 49.6C522.792 46.4667 526.192 44.1 530.192 42.5C534.192 40.8333 538.725 40 543.792 40C549.192 40 553.892 40.9 557.892 42.7C561.959 44.4333 565.326 46.9 567.992 50.1C570.726 53.3 572.759 57.1333 574.092 61.6C575.492 66.0667 576.192 71 576.192 76.4C576.192 82.1333 575.426 87.2667 573.892 91.8C572.426 96.3333 570.292 100.167 567.492 103.3C564.692 106.367 561.292 108.733 557.292 110.4C553.292 112 548.792 112.8 543.792 112.8C538.392 112.8 533.659 111.933 529.592 110.2C525.592 108.4 522.226 105.9 519.492 102.7C516.826 99.5 514.826 95.6667 513.492 91.2C512.159 86.7333 511.492 81.8 511.492 76.4ZM527.192 76.4C527.192 79.8667 527.526 83.0333 528.192 85.9C528.859 88.7667 529.859 91.2333 531.192 93.3C532.526 95.3667 534.225 96.9667 536.292 98.1C538.426 99.2333 540.926 99.8 543.792 99.8C549.059 99.8 553.159 98 556.092 94.4C559.026 90.8 560.492 84.8 560.492 76.4C560.492 73.0667 560.192 69.9667 559.592 67.1C558.992 64.2333 557.992 61.7667 556.592 59.7C555.259 57.5667 553.526 55.9333 551.392 54.8C549.326 53.6 546.792 53 543.792 53C538.592 53 534.526 54.8667 531.592 58.6C528.659 62.3333 527.192 68.2667 527.192 76.4Z" fill="url(#paint7_linear)"/>
<path d="M599.748 41.4V63C599.748 66.8667 600.615 69.8333 602.348 71.9C604.082 73.9667 606.915 75 610.848 75C613.648 75 616.282 74.7333 618.748 74.2C621.215 73.6 623.148 72.7333 624.548 71.6V41.4H639.348V111.4H624.548V83.4C622.748 84.4 620.215 85.3333 616.948 86.2C613.748 87 609.948 87.4 605.548 87.4C602.482 87.4 599.682 87.0333 597.148 86.3C594.615 85.5 592.448 84.3 590.648 82.7C588.848 81.1 587.448 79.0667 586.448 76.6C585.448 74.1333 584.948 71.2 584.948 67.8V41.4H599.748Z" fill="url(#paint8_linear)"/>
<path d="M652.371 41.4H697.471V54.4H667.171V69.6H694.671V82.6H667.171V98.4H697.971V111.4H652.371V41.4Z" fill="url(#paint9_linear)"/>
<path d="M762.912 54.4H740.712V111.4H725.912V54.4H703.712V41.4H762.912V54.4Z" fill="url(#paint10_linear)"/>
<path d="M799.639 96.5H776.039L770.339 111.4H755.539L782.939 40.9H793.839L821.339 111.4H805.639L799.639 96.5ZM780.139 84.8H796.139L790.739 70.2L788.339 59.1H787.839L785.439 70.3L780.139 84.8Z" fill="url(#paint11_linear)"/>
<path d="M151.2 123.8H140.7L139.1 111.4H90.1L88.5 123.8H78V98.4H86.1C86.6333 97.6667 87.4667 96.0667 88.6 93.6C89.7333 91.1333 90.8667 87.6 92 83C93.1333 78.4 94.1 72.7 94.9 65.9C95.7667 59.0333 96.1333 50.8667 96 41.4H141.6V98.4H151.2V123.8ZM126.8 98.4V54.4H109.8C109.4 65.8667 108.367 75.2667 106.7 82.6C105.1 89.9333 103.467 95.2 101.8 98.4H126.8Z" stroke="white" stroke-width="10" mask="url(#path-6-outside-1)"/>
<path d="M154.754 76.4C154.754 70.6667 155.487 65.5333 156.954 61C158.421 56.4667 160.521 52.6667 163.254 49.6C166.054 46.4667 169.454 44.1 173.454 42.5C177.454 40.8333 181.987 40 187.054 40C192.454 40 197.154 40.9 201.154 42.7C205.221 44.4333 208.587 46.9 211.254 50.1C213.987 53.3 216.021 57.1333 217.354 61.6C218.754 66.0667 219.454 71 219.454 76.4C219.454 82.1333 218.687 87.2667 217.154 91.8C215.687 96.3333 213.554 100.167 210.754 103.3C207.954 106.367 204.554 108.733 200.554 110.4C196.554 112 192.054 112.8 187.054 112.8C181.654 112.8 176.921 111.933 172.854 110.2C168.854 108.4 165.487 105.9 162.754 102.7C160.087 99.5 158.087 95.6667 156.754 91.2C155.421 86.7333 154.754 81.8 154.754 76.4ZM170.454 76.4C170.454 79.8667 170.787 83.0333 171.454 85.9C172.121 88.7667 173.121 91.2333 174.454 93.3C175.787 95.3667 177.487 96.9667 179.554 98.1C181.687 99.2333 184.187 99.8 187.054 99.8C192.321 99.8 196.421 98 199.354 94.4C202.287 90.8 203.754 84.8 203.754 76.4C203.754 73.0667 203.454 69.9667 202.854 67.1C202.254 64.2333 201.254 61.7667 199.854 59.7C198.521 57.5667 196.787 55.9333 194.654 54.8C192.587 53.6 190.054 53 187.054 53C181.854 53 177.787 54.8667 174.854 58.6C171.921 62.3333 170.454 68.2667 170.454 76.4Z" stroke="white" stroke-width="10" mask="url(#path-6-outside-1)"/>
<path d="M281.31 108.4C279.11 109.933 276.21 111.033 272.61 111.7C269.01 112.433 265.31 112.8 261.51 112.8C257.044 112.8 252.743 112.133 248.61 110.8C244.543 109.467 240.91 107.333 237.71 104.4C234.577 101.467 232.077 97.7 230.21 93.1C228.343 88.5 227.41 82.9333 227.41 76.4C227.41 69.6 228.477 63.9 230.61 59.3C232.743 54.6333 235.477 50.9 238.81 48.1C242.143 45.2333 245.843 43.1667 249.91 41.9C253.977 40.6333 257.977 40 261.91 40C266.243 40 269.877 40.2667 272.81 40.8C275.81 41.3333 278.277 41.9667 280.21 42.7L277.31 55.1C275.643 54.3667 273.677 53.8333 271.41 53.5C269.21 53.1667 266.41 53 263.01 53C260.01 53 257.277 53.5 254.81 54.5C252.41 55.4333 250.343 56.8667 248.61 58.8C246.877 60.7333 245.51 63.1667 244.51 66.1C243.577 69.0333 243.11 72.4667 243.11 76.4C243.11 79.8667 243.543 83.0333 244.41 85.9C245.277 88.7667 246.577 91.2333 248.31 93.3C250.043 95.3667 252.243 96.9667 254.91 98.1C257.577 99.2333 260.677 99.8 264.21 99.8C267.477 99.8 270.21 99.5 272.41 98.9C274.677 98.3 276.677 97.5333 278.41 96.6L281.31 108.4Z" stroke="white" stroke-width="10" mask="url(#path-6-outside-1)"/>
<path d="M309.352 81.8H305.452V111.4H290.652V41.4H305.452V72.2L308.952 70.7L329.952 41.4H346.852L324.652 70.7L318.852 74.5L324.852 78.5L350.252 111.4H331.952L309.352 81.8Z" stroke="white" stroke-width="10" mask="url(#path-6-outside-1)"/>
<path d="M393.487 96.5H369.887L364.187 111.4H349.387L376.787 40.9H387.687L415.187 111.4H399.487L393.487 96.5ZM373.987 84.8H389.987L384.587 70.2L382.187 59.1H381.687L379.287 70.3L373.987 84.8Z" stroke="white" stroke-width="10" mask="url(#path-6-outside-1)"/>
<path d="M486.159 54.4H459.359V111.4H444.559V41.4H500.959V111.4H486.159V54.4Z" stroke="white" stroke-width="10" mask="url(#path-6-outside-1)"/>
<path d="M511.492 76.4C511.492 70.6667 512.226 65.5333 513.692 61C515.159 56.4667 517.259 52.6667 519.992 49.6C522.792 46.4667 526.192 44.1 530.192 42.5C534.192 40.8333 538.725 40 543.792 40C549.192 40 553.892 40.9 557.892 42.7C561.959 44.4333 565.326 46.9 567.992 50.1C570.726 53.3 572.759 57.1333 574.092 61.6C575.492 66.0667 576.192 71 576.192 76.4C576.192 82.1333 575.426 87.2667 573.892 91.8C572.426 96.3333 570.292 100.167 567.492 103.3C564.692 106.367 561.292 108.733 557.292 110.4C553.292 112 548.792 112.8 543.792 112.8C538.392 112.8 533.659 111.933 529.592 110.2C525.592 108.4 522.226 105.9 519.492 102.7C516.826 99.5 514.826 95.6667 513.492 91.2C512.159 86.7333 511.492 81.8 511.492 76.4ZM527.192 76.4C527.192 79.8667 527.526 83.0333 528.192 85.9C528.859 88.7667 529.859 91.2333 531.192 93.3C532.526 95.3667 534.225 96.9667 536.292 98.1C538.426 99.2333 540.926 99.8 543.792 99.8C549.059 99.8 553.159 98 556.092 94.4C559.026 90.8 560.492 84.8 560.492 76.4C560.492 73.0667 560.192 69.9667 559.592 67.1C558.992 64.2333 557.992 61.7667 556.592 59.7C555.259 57.5667 553.526 55.9333 551.392 54.8C549.326 53.6 546.792 53 543.792 53C538.592 53 534.526 54.8667 531.592 58.6C528.659 62.3333 527.192 68.2667 527.192 76.4Z" stroke="white" stroke-width="10" mask="url(#path-6-outside-1)"/>
<path d="M599.748 41.4V63C599.748 66.8667 600.615 69.8333 602.348 71.9C604.082 73.9667 606.915 75 610.848 75C613.648 75 616.282 74.7333 618.748 74.2C621.215 73.6 623.148 72.7333 624.548 71.6V41.4H639.348V111.4H624.548V83.4C622.748 84.4 620.215 85.3333 616.948 86.2C613.748 87 609.948 87.4 605.548 87.4C602.482 87.4 599.682 87.0333 597.148 86.3C594.615 85.5 592.448 84.3 590.648 82.7C588.848 81.1 587.448 79.0667 586.448 76.6C585.448 74.1333 584.948 71.2 584.948 67.8V41.4H599.748Z" stroke="white" stroke-width="10" mask="url(#path-6-outside-1)"/>
<path d="M652.371 41.4H697.471V54.4H667.171V69.6H694.671V82.6H667.171V98.4H697.971V111.4H652.371V41.4Z" stroke="white" stroke-width="10" mask="url(#path-6-outside-1)"/>
<path d="M762.912 54.4H740.712V111.4H725.912V54.4H703.712V41.4H762.912V54.4Z" stroke="white" stroke-width="10" mask="url(#path-6-outside-1)"/>
<path d="M799.639 96.5H776.039L770.339 111.4H755.539L782.939 40.9H793.839L821.339 111.4H805.639L799.639 96.5ZM780.139 84.8H796.139L790.739 70.2L788.339 59.1H787.839L785.439 70.3L780.139 84.8Z" stroke="white" stroke-width="10" mask="url(#path-6-outside-1)"/>
<defs>
<linearGradient id="paint0_linear" x1="456.828" y1="41" x2="456.828" y2="134.8" gradientUnits="userSpaceOnUse">
<stop stop-color="#F1F1F1"/>
<stop offset="1" stop-color="#4A4A4A"/>
</linearGradient>
<linearGradient id="paint1_linear" x1="450" y1="9.40002" x2="450" y2="138.4" gradientUnits="userSpaceOnUse">
<stop stop-color="#DD1525"/>
<stop offset="1" stop-color="#AE0D1A"/>
</linearGradient>
<linearGradient id="paint2_linear" x1="450" y1="9.40002" x2="450" y2="138.4" gradientUnits="userSpaceOnUse">
<stop stop-color="#DD1525"/>
<stop offset="1" stop-color="#AE0D1A"/>
</linearGradient>
<linearGradient id="paint3_linear" x1="450" y1="9.40002" x2="450" y2="138.4" gradientUnits="userSpaceOnUse">
<stop stop-color="#DD1525"/>
<stop offset="1" stop-color="#AE0D1A"/>
</linearGradient>
<linearGradient id="paint4_linear" x1="450" y1="9.40002" x2="450" y2="138.4" gradientUnits="userSpaceOnUse">
<stop stop-color="#DD1525"/>
<stop offset="1" stop-color="#AE0D1A"/>
</linearGradient>
<linearGradient id="paint5_linear" x1="450" y1="9.40002" x2="450" y2="138.4" gradientUnits="userSpaceOnUse">
<stop stop-color="#DD1525"/>
<stop offset="1" stop-color="#AE0D1A"/>
</linearGradient>
<linearGradient id="paint6_linear" x1="450" y1="9.40002" x2="450" y2="138.4" gradientUnits="userSpaceOnUse">
<stop stop-color="#DD1525"/>
<stop offset="1" stop-color="#AE0D1A"/>
</linearGradient>
<linearGradient id="paint7_linear" x1="450" y1="9.40002" x2="450" y2="138.4" gradientUnits="userSpaceOnUse">
<stop stop-color="#DD1525"/>
<stop offset="1" stop-color="#AE0D1A"/>
</linearGradient>
<linearGradient id="paint8_linear" x1="450" y1="9.40002" x2="450" y2="138.4" gradientUnits="userSpaceOnUse">
<stop stop-color="#DD1525"/>
<stop offset="1" stop-color="#AE0D1A"/>
</linearGradient>
<linearGradient id="paint9_linear" x1="450" y1="9.40002" x2="450" y2="138.4" gradientUnits="userSpaceOnUse">
<stop stop-color="#DD1525"/>
<stop offset="1" stop-color="#AE0D1A"/>
</linearGradient>
<linearGradient id="paint10_linear" x1="450" y1="9.40002" x2="450" y2="138.4" gradientUnits="userSpaceOnUse">
<stop stop-color="#DD1525"/>
<stop offset="1" stop-color="#AE0D1A"/>
</linearGradient>
<linearGradient id="paint11_linear" x1="450" y1="9.40002" x2="450" y2="138.4" gradientUnits="userSpaceOnUse">
<stop stop-color="#DD1525"/>
<stop offset="1" stop-color="#AE0D1A"/>
</linearGradient>
</defs>
</svg>
