<svg width="81" height="50" viewBox="0 0 81 50" fill="none" xmlns="http://www.w3.org/2000/svg">
<path d="M12.2981 27.1179L11 31.6179H1V1.11791C10.2 0.317907 16.5 3.78457 18.5 5.61791L17.8479 7.87851M12.2981 27.1179C16.532 32.1179 26.4 42.8179 32 45.6179C39 49.1179 41.5 49.1179 43 48.1179L44 47.6179M12.2981 27.1179L17.8479 7.87851M44 47.6179L35.5 39.1179M44 47.6179C46.1667 48.6179 50.5 49.4179 50.5 44.6179M50.5 44.6179L42 35.1179M50.5 44.6179C52.8333 45.1179 57.5 45.0179 57.5 40.6179M57.5 40.6179L48 30.6179M57.5 40.6179C58.5 40.9513 60.9 41.1179 62.5 39.1179C63.4565 37.9223 63.1503 36.548 62.5 35.4223M61 11.6179C55.6667 9.61792 44.3 5.41791 41.5 4.61792C38.6541 3.80483 35.8083 5.96683 33.5 7.87851M61 11.6179L59.5 7.87851C64.7 4.08699 75 3.79165 79.5 4.11792L80 35.4223H70.5L68.5826 30.6179M61 11.6179L68.5826 30.6179M33.5 7.87851C32.9694 8.31793 32.4672 8.74412 32 9.11792C29.5 11.1179 24 17.6179 27.5 21.1179C30.3 23.9179 35 20.2846 37 18.1179C39.4 18.5179 41.3333 17.2846 42 16.6179L61 33.6179C61.4692 34.0201 62.0625 34.665 62.5 35.4223M33.5 7.87851H17.8479M62.5 35.4223L68.5826 30.6179" stroke="white" stroke-width="2" stroke-linecap="round" stroke-linejoin="round"/>
</svg>
