<svg width="82" height="76" viewBox="0 0 82 76" fill="none" xmlns="http://www.w3.org/2000/svg">
<path d="M40.5189 35.6698L54.618 55.0849M40.5189 35.6698L26.8821 55.0849M40.5189 35.6698V24.5755M54.618 55.0849L63.6321 41.6793L80.2736 64.7925H61.6675M54.618 55.0849L61.6675 64.7925M61.6675 64.7925L68.717 74.5H13.2453L20.0637 64.7925M20.0637 64.7925H1.22644L17.4057 41.6793L26.8821 55.0849M20.0637 64.7925L26.8821 55.0849M40.5189 24.5755V15.7925H26.8821L28.9623 19.9529L26.8821 24.5755H40.5189Z" stroke="white" stroke-width="2" stroke-linecap="round" stroke-linejoin="round"/>
<path d="M10.3101 51.8491C7.75693 47.019 6.31128 41.5133 6.31128 35.6698C6.31128 16.5222 21.8335 1 40.9811 1C60.1287 1 75.6509 16.5222 75.6509 35.6698C75.6509 41.7005 74.1111 47.3716 71.4032 52.3113" stroke="white" stroke-width="2" stroke-linecap="round" stroke-linejoin="round"/>
</svg>
