<svg width="49" height="64" viewBox="0 0 49 64" fill="none" xmlns="http://www.w3.org/2000/svg">
<path d="M1.18593 16.6359C3.44054 9.34994 9.36765 3.42108 16.6536 1.16622C24.3651 -1.22253 32.5698 0.105095 38.8324 4.71958C45.0489 9.30219 48.7598 16.6432 48.7598 24.3561C48.7598 29.677 47.0765 34.7321 43.8932 38.9741L24.3776 63.9998L4.86204 38.9722C0.0979271 32.6202 -1.24281 24.4789 1.18593 16.6359Z" fill="#00B3A4"/>
<path fill-rule="evenodd" clip-rule="evenodd" d="M14.8694 6.99153C16.7946 6.0577 18.4956 5.51662 20.5076 5.19807C22.2607 4.92051 24.9751 4.93646 26.7262 5.23461C30.9325 5.95085 34.5207 7.81623 37.4886 10.8295C42.0552 15.4658 43.9796 22.0175 42.6755 28.4883C42.2445 30.6268 41.1088 33.3481 39.8641 35.2256C38.3474 37.5134 36.0576 39.7261 33.7555 41.1283C24.0404 47.0463 11.3633 43.5001 6.15099 33.4066C5.56962 32.2808 5.50799 32.0118 5.73501 31.5913C5.81109 31.4504 8.77474 28.4443 12.321 24.9112C16.693 20.5554 18.8529 18.4671 19.0302 18.4246C19.6573 18.2741 20.1477 18.6383 20.1477 19.2544C20.1477 19.6436 20.1103 19.6895 18.3645 21.4372C17.3838 22.419 14.5627 25.2588 12.0955 27.7478L7.60971 32.2732L7.88228 32.8119C8.67355 34.3759 10.3011 36.4281 11.7915 37.7414C16.8241 42.1755 24.0593 43.417 30.1812 40.8967C35.8396 38.5675 39.7678 33.7664 40.9935 27.6817C41.1838 26.7374 41.2132 26.3094 41.2121 24.5029C41.2107 22.0264 41.0393 20.9082 40.3486 18.8683C38.2967 12.8086 33.2812 8.38492 26.999 7.09429C25.0217 6.68806 22.1361 6.68711 20.1439 7.09211C14.3621 8.26754 9.5272 12.1863 7.2096 17.5757C6.95016 18.1788 6.73798 18.7234 6.73798 18.7859C6.73798 18.8484 7.84775 20.0109 9.20423 21.3691C10.8078 22.9748 11.6931 23.9306 11.7352 24.1014C11.8138 24.4199 11.6363 24.8856 11.3639 25.076C11.2548 25.1522 11.0163 25.2145 10.8338 25.2145C10.5257 25.2145 10.2985 25.0121 7.66544 22.3915C6.01728 20.7511 4.80374 19.4693 4.76875 19.3317C4.64578 18.8485 5.809 16.0411 6.83327 14.3492C8.71235 11.2452 11.6555 8.55069 14.8694 6.99153ZM26.3808 22.9127L29.3092 19.9808L38.6281 29.31C38.8005 29.48 39.0331 29.5749 39.2751 29.5741C39.5172 29.5732 39.7491 29.4767 39.9202 29.3055C40.0914 29.1344 40.1879 28.9025 40.1887 28.6604C40.1896 28.4184 40.0947 28.1858 39.9247 28.0135L29.9592 18.0343C29.7868 17.8632 29.5538 17.7671 29.3109 17.7671C29.068 17.7671 28.835 17.8632 28.6626 18.0343L25.0842 21.6127C24.9118 21.7846 24.8148 22.018 24.8145 22.2615C24.8141 22.5049 24.9105 22.7386 25.0825 22.911C25.2544 23.0834 25.4878 23.1804 25.7313 23.1807C25.9748 23.181 26.2084 23.0846 26.3808 22.9127ZM24.2362 22.988L21.5951 20.3469C21.5102 20.2608 21.4091 20.1924 21.2976 20.1455C21.1861 20.0986 21.0664 20.0743 20.9455 20.0739C20.8246 20.0734 20.7047 20.0969 20.5929 20.143C20.4811 20.1891 20.3795 20.2569 20.294 20.3424C20.2085 20.4279 20.1407 20.5295 20.0946 20.6413C20.0485 20.7531 20.025 20.873 20.0255 20.9939C20.0259 21.1148 20.0502 21.2345 20.0971 21.346C20.144 21.4575 20.2124 21.5586 20.2985 21.6435L21.3727 22.7177H18.3759C18.142 22.732 17.9223 22.835 17.7617 23.0057C17.6011 23.1764 17.5117 23.4019 17.5117 23.6363C17.5117 23.8706 17.6011 24.0962 17.7617 24.2669C17.9223 24.4375 18.142 24.5405 18.3759 24.5548H23.2064L25.5669 26.9119C25.6519 26.9975 25.7529 27.0654 25.8641 27.1117C25.9754 27.158 26.0947 27.1819 26.2152 27.1819C26.3358 27.1819 26.4551 27.158 26.5664 27.1117C26.6776 27.0654 26.7786 26.9975 26.8635 26.9119C27.0346 26.7395 27.1306 26.5065 27.1306 26.2636C27.1306 26.0208 27.0346 25.7877 26.8635 25.6153L24.2362 22.988Z" fill="white"/>
</svg>
