<svg width="22" height="14" viewBox="0 0 22 14" fill="none" xmlns="http://www.w3.org/2000/svg">
<path d="M21.8817 12.1055C20.9832 10.4885 18.6687 8.5455 17.7132 7.7C17.4517 7.4685 17.4237 7.068 17.6617 6.812C19.4852 4.8525 20.9437 2.601 21.4457 1.2405C21.6672 0.6395 21.2087 0.00449991 20.5627 0.00449991H18.6862C18.0677 0.00449991 17.7057 0.2265 17.5332 0.58C16.0177 3.6855 14.7177 5.0295 13.8077 5.815C13.2982 6.255 12.5037 5.8905 12.5037 5.221C12.5037 3.931 12.5037 2.2635 12.5037 1.081C12.5037 0.5075 12.0347 0.0434999 11.4562 0.0434999L8.02819 0.00449991C7.59669 0.00449991 7.35019 0.493 7.60919 0.8355L8.17519 1.648C8.38819 1.9295 8.50319 2.272 8.50319 2.6235L8.50019 6.2825C8.50019 6.919 7.72869 7.23 7.27069 6.784C5.72119 5.275 4.37669 2.1935 3.89269 0.72C3.75269 0.2935 3.35319 0.00549991 2.90019 0.00449991L1.05169 0C0.358188 0 -0.148812 0.6575 0.0396881 1.3195C1.72869 7.248 5.19419 12.888 11.3702 13.4995C11.9787 13.5595 12.5037 13.0695 12.5037 12.463V10.54C12.5037 9.9885 12.9362 9.5145 13.4922 9.5005C13.5117 9.5 13.5312 9.5 13.5507 9.5C15.1842 9.5 17.0137 11.8775 17.6537 12.9895C17.8377 13.3095 18.1817 13.5045 18.5537 13.5045H21.0402C21.7657 13.5045 22.2312 12.735 21.8817 12.1055Z" fill="#006058"/>
</svg>
