<svg width="20" height="22" viewBox="0 0 20 22" fill="none" xmlns="http://www.w3.org/2000/svg">
<path d="M19.7957 12.642C20.4466 7.16294 19.483 3.70384 17.7448 2.13929L17.7457 2.13838C14.9402 -0.533449 5.46565 -0.928905 2.10928 2.25838C0.601999 3.81747 0.071088 6.10566 0.012906 8.9384C-0.045276 11.772 -0.114367 17.0802 4.83201 18.5203H4.83656L4.83201 20.7194C4.83201 20.7194 4.79838 21.6103 5.36747 21.7894C6.01838 22.0003 6.31293 21.5866 8.33748 19.1684C11.7229 19.4621 14.323 18.7893 14.6184 18.6912C15.302 18.4621 19.1702 17.9503 19.7957 12.642ZM8.67112 17.6212C8.67112 17.6212 6.52838 20.293 5.86202 20.9866C5.64383 21.2121 5.40474 21.1912 5.40838 20.7439C5.40838 20.4503 5.42474 17.093 5.42474 17.093C1.23109 15.8912 1.47837 11.3711 1.52382 9.00658C1.56927 6.64112 2.002 4.70384 3.27837 3.39929C6.22293 0.638373 14.5293 1.25565 16.6457 3.24475C19.233 5.53839 18.3121 12.0184 18.3175 12.2393C17.7857 16.6702 14.6511 16.9512 14.0748 17.143C13.8284 17.2248 11.542 17.813 8.67112 17.6212Z" fill="#006058"/>
<path d="M9.85625 3.91797C9.50625 3.91797 9.50625 4.46343 9.85625 4.46797C12.5717 4.48888 14.8081 6.38161 14.8326 9.85344C14.8326 10.2198 15.369 10.2153 15.3645 9.8489H15.3635C15.3345 6.10798 12.8926 3.93888 9.85625 3.91797Z" fill="#006058"/>
<path d="M13.4285 9.27866C13.4203 9.64048 13.9558 9.65775 13.9603 9.29139C14.0049 7.22865 12.7331 5.52956 10.343 5.35047C9.99304 5.32501 9.95668 5.87501 10.3058 5.90047C12.3785 6.05774 13.4703 7.47229 13.4285 9.27866Z" fill="#006058"/>
<path d="M12.8553 11.6251C12.4062 11.3651 11.9489 11.5269 11.7598 11.7824L11.3643 12.2942C11.1634 12.5542 10.788 12.5196 10.788 12.5196C8.04796 11.7951 7.31523 8.92782 7.31523 8.92782C7.31523 8.92782 7.2816 8.53963 7.53251 8.33145L8.02705 7.92236C8.27433 7.72599 8.43069 7.25326 8.17887 6.78872C7.50614 5.57326 7.05432 5.15417 6.82432 4.83235C6.5825 4.52962 6.21887 4.46144 5.84068 4.66598H5.8325C5.04613 5.12598 4.18522 5.9869 4.46068 6.87326C4.93068 7.80781 5.79432 10.7869 8.54705 13.0378C9.8407 14.1024 11.888 15.1933 12.7571 15.4451L12.7653 15.4578C13.6216 15.7433 14.4543 14.8487 14.8989 14.0387V14.0324C15.0962 13.6406 15.0307 13.2696 14.7425 13.0269C14.2316 12.5287 13.4607 11.9787 12.8553 11.6251Z" fill="#006058"/>
<path d="M10.7176 7.37968C11.5912 7.43059 12.0149 7.88696 12.0603 8.82423C12.0767 9.1906 12.6085 9.16515 12.5922 8.79878C12.534 7.57514 11.8958 6.89332 10.7467 6.82968C10.3967 6.80877 10.364 7.35878 10.7176 7.37968Z" fill="#006058"/>
</svg>
