<svg width="24" height="24" viewBox="0 0 24 24" fill="none" xmlns="http://www.w3.org/2000/svg">
<path d="M16.2187 2.94933L8.71872 2.92412C5.54824 2.91346 2.96008 5.48427 2.94942 8.65475L2.9242 16.1547C2.91355 19.3252 5.48436 21.9133 8.65484 21.924L16.1548 21.9492C19.3253 21.9599 21.9134 19.3891 21.9241 16.2186L21.9493 8.71863C21.96 5.54815 19.3892 2.95999 16.2187 2.94933ZM12.4199 17.4366C9.66296 17.4274 7.42752 15.1768 7.43679 12.4199C7.44606 9.66288 9.69658 7.42743 12.4536 7.4367C15.2106 7.44597 17.446 9.69649 17.4367 12.4535C17.4275 15.2105 15.1769 17.4459 12.4199 17.4366ZM17.4502 8.4535C16.8977 8.45164 16.4517 8.00214 16.4535 7.45015C16.4554 6.89765 16.9044 6.45166 17.4569 6.45351C18.0094 6.45537 18.4554 6.90437 18.4535 7.45687C18.4517 8.00887 18.0027 8.45536 17.4502 8.4535Z" fill="#006058"/>
<path d="M12.4247 15.9365C14.3577 15.943 15.9299 14.3813 15.9364 12.4483C15.9429 10.5153 14.3812 8.94307 12.4482 8.93657C10.5152 8.93007 8.94297 10.4918 8.93648 12.4248C8.92998 14.3578 10.4917 15.93 12.4247 15.9365Z" fill="#006058"/>
</svg>
