<svg width="33" height="32" viewBox="0 0 33 32" fill="none" xmlns="http://www.w3.org/2000/svg">
<path d="M20.625 10.6667H20.6392" stroke="#303030" stroke-width="2" stroke-linecap="round" stroke-linejoin="round"/>
<path d="M23.375 5.33333H9.625C7.34683 5.33333 5.5 7.12419 5.5 9.33333V22.6667C5.5 24.8758 7.34683 26.6667 9.625 26.6667H23.375C25.6532 26.6667 27.5 24.8758 27.5 22.6667V9.33333C27.5 7.12419 25.6532 5.33333 23.375 5.33333Z" stroke="#303030" stroke-width="2" stroke-linecap="round" stroke-linejoin="round"/>
<path d="M5.5 20L11 14.6667C11.6271 14.0815 12.3384 13.7735 13.0625 13.7735C13.7866 13.7735 14.4979 14.0815 15.125 14.6667L22 21.3333" stroke="#303030" stroke-width="2" stroke-linecap="round" stroke-linejoin="round"/>
<path d="M19.25 18.6667L20.625 17.3333C21.2521 16.7482 21.9634 16.4402 22.6875 16.4402C23.4116 16.4402 24.1229 16.7482 24.75 17.3333L27.5 20" stroke="#303030" stroke-width="2" stroke-linecap="round" stroke-linejoin="round"/>
</svg>
