<svg width="21" height="21" viewBox="0 0 21 21" fill="none" xmlns="http://www.w3.org/2000/svg">
<path fill-rule="evenodd" clip-rule="evenodd" d="M17.6678 3.0199C15.7237 1.07352 13.1382 0.0011415 10.3837 0C4.70793 0 0.0886565 4.61914 0.0863735 10.2965C0.0856125 12.1113 0.559716 13.8829 1.46087 15.4445L0 20.7804L5.45878 19.3484C6.9629 20.1689 8.65625 20.6013 10.3795 20.6018H10.3838C16.059 20.6018 20.6788 15.9823 20.6809 10.3047C20.6821 7.55318 19.612 4.96616 17.6678 3.0199ZM10.3837 18.8628H10.3802C8.84447 18.8622 7.33833 18.4494 6.02408 17.6698L5.71169 17.4842L2.47236 18.334L3.33699 15.1757L3.13342 14.8519C2.27666 13.4892 1.82424 11.9142 1.82501 10.2971C1.82678 5.57826 5.66628 1.73914 10.3871 1.73914C12.6732 1.7399 14.8221 2.63129 16.438 4.24905C18.0538 5.86681 18.9432 8.01714 18.9424 10.3041C18.9404 15.0233 15.1012 18.8628 10.3837 18.8628ZM15.0783 12.4528C14.8211 12.3239 13.5561 11.7016 13.3202 11.6157C13.0845 11.5298 12.9128 11.487 12.7414 11.7445C12.5698 12.002 12.0768 12.5816 11.9266 12.7532C11.7765 12.925 11.6266 12.9465 11.3692 12.8177C11.1119 12.6889 10.2829 12.4171 9.30006 11.5406C8.53525 10.8583 8.01891 10.0158 7.86874 9.75831C7.71883 9.50058 7.86747 9.37476 7.98162 9.23322C8.26015 8.88734 8.53906 8.52473 8.6248 8.35312C8.71066 8.18139 8.66767 8.03109 8.60323 7.90235C8.53906 7.77362 8.02449 6.50719 7.81015 5.99186C7.60112 5.49036 7.38919 5.55809 7.23115 5.55023C7.08123 5.54275 6.90963 5.54122 6.73802 5.54122C6.56654 5.54122 6.28776 5.60553 6.05185 5.86325C5.81607 6.12085 5.15146 6.74322 5.15146 8.00965C5.15146 9.27609 6.07342 10.4995 6.20202 10.6713C6.33063 10.843 8.01638 13.4418 10.5973 14.5562C11.2112 14.8215 11.6904 14.9797 12.0641 15.0982C12.6805 15.2941 13.2413 15.2664 13.6847 15.2002C14.1791 15.1263 15.2068 14.5777 15.4214 13.9768C15.6358 13.3757 15.6358 12.8607 15.5713 12.7532C15.5072 12.6459 15.3356 12.5816 15.0783 12.4528Z" fill="#006058"/>
</svg>
