<svg width="218" height="79" viewBox="0 0 218 79" fill="none" xmlns="http://www.w3.org/2000/svg">
<path d="M100.912 16.8604C100.91 16.9824 100.866 17.0999 100.787 17.193L93.331 26.777C93.284 26.8414 93.2225 26.8938 93.1515 26.9299C93.0804 26.966 93.0018 26.9849 92.9221 26.9849C92.7793 26.9828 92.6427 26.9257 92.541 26.8255C92.486 26.78 92.4419 26.7228 92.4119 26.658C92.3819 26.5933 92.3668 26.5226 92.3677 26.4513C92.3702 26.3327 92.4116 26.2183 92.4855 26.1256L95.9504 21.6558L92.4855 17.193C92.4111 17.0979 92.3697 16.9811 92.3677 16.8604C92.3683 16.7893 92.384 16.7191 92.4139 16.6546C92.4437 16.59 92.4871 16.5326 92.541 16.4862C92.6427 16.3859 92.7793 16.3288 92.9221 16.3268C93.0018 16.3268 93.0804 16.3456 93.1515 16.3817C93.2225 16.4179 93.284 16.4703 93.331 16.5347L96.6365 20.7896L99.942 16.5347C99.99 16.4697 100.053 16.417 100.125 16.3809C100.197 16.3448 100.277 16.3262 100.358 16.3268C100.501 16.3288 100.637 16.3859 100.739 16.4862C100.793 16.5326 100.836 16.59 100.866 16.6546C100.896 16.7191 100.912 16.7893 100.912 16.8604Z" fill="white"/>
<path d="M108.368 26.4513C108.379 26.5231 108.372 26.5963 108.349 26.6652C108.327 26.7341 108.288 26.7969 108.237 26.8485C108.186 26.9001 108.124 26.9393 108.055 26.963C107.987 26.9866 107.914 26.9941 107.842 26.9849C107.769 26.9953 107.695 26.9887 107.626 26.9656C107.556 26.9424 107.493 26.9034 107.441 26.8516C107.389 26.7999 107.35 26.7367 107.327 26.6672C107.304 26.5977 107.298 26.5238 107.308 26.4513V17.387H103.039V26.4513C103.048 26.526 103.041 26.6016 103.018 26.6733C102.995 26.745 102.957 26.8111 102.907 26.8672C102.857 26.9233 102.796 26.9682 102.727 26.9989C102.659 27.0297 102.584 27.0456 102.509 27.0456C102.434 27.0456 102.36 27.0297 102.291 26.9989C102.222 26.9682 102.161 26.9233 102.111 26.8672C102.061 26.8111 102.023 26.745 102.001 26.6733C101.978 26.6016 101.97 26.526 101.979 26.4513V16.8604C101.978 16.7904 101.992 16.721 102.019 16.6565C102.047 16.5921 102.087 16.5341 102.138 16.4862C102.238 16.3863 102.372 16.3292 102.513 16.3268H107.842C107.913 16.3163 107.986 16.3227 108.055 16.3455C108.124 16.3682 108.186 16.4067 108.237 16.4579C108.288 16.509 108.327 16.5714 108.35 16.6401C108.372 16.7088 108.379 16.7819 108.368 16.8534V26.4513Z" fill="white"/>
<path d="M110.503 26.4513V16.8604C110.506 16.72 110.564 16.5863 110.663 16.487C110.762 16.3877 110.896 16.3303 111.037 16.3268H113.698C114.33 16.3273 114.948 16.5151 115.474 16.8665C116 17.2179 116.41 17.7171 116.652 18.3013C116.895 18.8854 116.958 19.5282 116.836 20.1487C116.713 20.7691 116.41 21.3394 115.964 21.7875C115.669 22.0894 115.317 22.3281 114.927 22.489C114.537 22.6498 114.119 22.7295 113.698 22.723H112.097C112.023 22.7344 111.948 22.7279 111.877 22.7041C111.807 22.6802 111.743 22.6398 111.691 22.5861C111.64 22.5324 111.602 22.4671 111.581 22.3956C111.559 22.3242 111.556 22.2487 111.57 22.1756V26.4374C111.57 26.5075 111.556 26.5769 111.53 26.6416C111.503 26.7064 111.463 26.7652 111.414 26.8147C111.364 26.8643 111.305 26.9036 111.241 26.9304C111.176 26.9572 111.107 26.971 111.037 26.971C110.966 26.971 110.897 26.9572 110.832 26.9304C110.768 26.9036 110.709 26.8643 110.659 26.8147C110.61 26.7652 110.57 26.7064 110.544 26.6416C110.517 26.5769 110.503 26.5075 110.503 26.4374V26.4513ZM111.57 22.1756C111.56 22.104 111.566 22.0309 111.589 21.9622C111.612 21.8936 111.65 21.8312 111.701 21.78C111.752 21.7288 111.815 21.6903 111.883 21.6676C111.952 21.6448 112.025 21.6384 112.097 21.6489H113.698C114.244 21.6178 114.757 21.379 115.132 20.9815C115.508 20.584 115.717 20.0579 115.717 19.5111C115.717 18.9642 115.508 18.4381 115.132 18.0406C114.757 17.6431 114.244 17.4043 113.698 17.3732H111.57V22.1756Z" fill="white"/>
<path d="M128.285 26.472C128.284 26.5411 128.268 26.6092 128.238 26.6715C128.208 26.7338 128.165 26.7887 128.112 26.8324C128.006 26.93 127.867 26.9844 127.724 26.9849C127.626 26.9888 127.529 26.9631 127.446 26.9112C127.363 26.8592 127.298 26.7835 127.259 26.6938L125.79 23.7625C125.728 23.7735 125.665 23.7735 125.603 23.7625H120.288C120.226 23.7735 120.163 23.7735 120.101 23.7625L118.632 26.6938C118.594 26.7829 118.53 26.8584 118.448 26.9104C118.366 26.9624 118.271 26.9883 118.174 26.9849C118.028 26.9861 117.887 26.9316 117.779 26.8324C117.726 26.7867 117.683 26.7305 117.654 26.6672C117.624 26.6039 117.607 26.5351 117.606 26.4651C117.605 26.3749 117.629 26.2862 117.675 26.2087L122.415 16.7149C122.448 16.6002 122.517 16.4994 122.612 16.4275C122.707 16.3557 122.823 16.3168 122.942 16.3168C123.061 16.3168 123.177 16.3557 123.272 16.4275C123.367 16.4994 123.436 16.6002 123.469 16.7149L128.202 26.2156C128.252 26.2919 128.281 26.3806 128.285 26.472ZM125.263 22.723L122.942 18.0731L120.62 22.723H125.263Z" fill="white"/>
<path d="M136.088 23.7902C136.088 24.6375 135.751 25.4501 135.152 26.0492C134.553 26.6483 133.74 26.9849 132.893 26.9849H130.232C130.091 26.9814 129.958 26.924 129.858 26.8247C129.759 26.7254 129.702 26.5917 129.698 26.4513V16.8604C129.702 16.72 129.759 16.5863 129.858 16.487C129.958 16.3877 130.091 16.3303 130.232 16.3268H132.893C133.445 16.3249 133.984 16.495 134.436 16.8133C134.887 17.1317 135.228 17.5826 135.412 18.1035C135.595 18.6245 135.612 19.1896 135.46 19.7206C135.308 20.2515 134.994 20.722 134.563 21.0668C135.042 21.3372 135.438 21.7343 135.707 22.2147C135.976 22.695 136.108 23.2401 136.088 23.7902ZM134.501 18.9879C134.499 18.5627 134.329 18.1555 134.027 17.8555C133.726 17.5555 133.318 17.3871 132.893 17.3871H130.759V20.5956H132.893C133.319 20.5956 133.728 20.4262 134.03 20.1247C134.331 19.8232 134.501 19.4142 134.501 18.9879ZM135.027 23.7902C135.025 23.2247 134.8 22.6829 134.4 22.283C134 21.8831 133.458 21.6577 132.893 21.6558H130.759V25.9246H132.893C133.457 25.9192 133.997 25.6926 134.396 25.2935C134.795 24.8944 135.022 24.3546 135.027 23.7902Z" fill="white"/>
<path d="M147.474 26.4721C147.475 26.5414 147.459 26.61 147.429 26.6725C147.399 26.735 147.355 26.7897 147.3 26.8324C147.198 26.9307 147.061 26.9854 146.919 26.9849C146.822 26.9888 146.725 26.9631 146.642 26.9112C146.559 26.8592 146.494 26.7835 146.455 26.6938L142.138 18.0731L137.827 26.6938C137.788 26.7818 137.724 26.8563 137.642 26.908C137.561 26.9598 137.466 26.9865 137.37 26.9849C137.224 26.9861 137.083 26.9316 136.975 26.8324C136.921 26.789 136.878 26.7342 136.848 26.6718C136.818 26.6095 136.802 26.5412 136.802 26.4721C136.801 26.3819 136.825 26.2932 136.871 26.2157L141.611 16.7149C141.651 16.6059 141.723 16.5111 141.816 16.4421C141.91 16.3732 142.022 16.3331 142.138 16.3268C142.254 16.3322 142.366 16.3729 142.459 16.4434C142.552 16.514 142.621 16.611 142.657 16.7218L147.404 26.2157C147.451 26.2932 147.475 26.3819 147.474 26.4721Z" fill="white"/>
<path d="M155.283 26.4513C155.294 26.5231 155.287 26.5963 155.264 26.6652C155.242 26.7341 155.203 26.7969 155.152 26.8485C155.101 26.9002 155.039 26.9393 154.97 26.963C154.902 26.9866 154.829 26.9941 154.757 26.9849H149.428C149.287 26.9813 149.154 26.924 149.054 26.8247C148.955 26.7254 148.898 26.5917 148.894 26.4513V16.8604C148.898 16.72 148.955 16.5863 149.054 16.487C149.154 16.3876 149.287 16.3303 149.428 16.3268H154.757C154.829 16.3175 154.902 16.325 154.97 16.3487C155.039 16.3723 155.101 16.4115 155.152 16.4631C155.203 16.5148 155.242 16.5775 155.264 16.6464C155.287 16.7153 155.294 16.7885 155.283 16.8604C155.294 16.932 155.287 17.005 155.265 17.0737C155.242 17.1424 155.203 17.2048 155.152 17.256C155.101 17.3071 155.039 17.3456 154.97 17.3684C154.901 17.3911 154.828 17.3975 154.757 17.3871H149.954V21.1292H153.683C153.755 21.1178 153.829 21.1234 153.899 21.1456C153.969 21.1678 154.032 21.206 154.085 21.2571C154.137 21.3083 154.177 21.3709 154.201 21.4401C154.225 21.5093 154.233 21.5832 154.223 21.6558C154.232 21.7287 154.225 21.8027 154.201 21.8722C154.177 21.9416 154.137 22.0045 154.085 22.0561C154.032 22.1078 153.969 22.1466 153.899 22.1697C153.829 22.1928 153.755 22.1996 153.683 22.1894H149.954V25.9246H154.757C154.828 25.9141 154.901 25.9205 154.97 25.9433C155.039 25.966 155.101 26.0045 155.152 26.0557C155.203 26.1068 155.242 26.1693 155.265 26.2379C155.287 26.3066 155.294 26.3797 155.283 26.4513Z" fill="white"/>
<path d="M164.168 26.4513C164.176 26.526 164.169 26.6016 164.146 26.6733C164.123 26.745 164.086 26.811 164.036 26.8672C163.986 26.9233 163.924 26.9682 163.856 26.9989C163.787 27.0297 163.713 27.0456 163.637 27.0456C163.562 27.0456 163.488 27.0297 163.419 26.9989C163.351 26.9682 163.289 26.9233 163.239 26.8672C163.189 26.811 163.152 26.745 163.129 26.6733C163.106 26.6016 163.099 26.526 163.107 26.4513V22.1755H157.771V26.4374C157.771 26.5789 157.715 26.7146 157.615 26.8147C157.515 26.9148 157.379 26.971 157.238 26.971C157.096 26.971 156.96 26.9148 156.86 26.8147C156.76 26.7146 156.704 26.5789 156.704 26.4374V16.8604C156.704 16.7189 156.76 16.5831 156.86 16.4831C156.96 16.383 157.096 16.3268 157.238 16.3268C157.379 16.3268 157.515 16.383 157.615 16.4831C157.715 16.5831 157.771 16.7189 157.771 16.8604V21.1291H163.107V16.8604C163.099 16.7857 163.106 16.71 163.129 16.6383C163.152 16.5666 163.189 16.5006 163.239 16.4445C163.289 16.3884 163.351 16.3435 163.419 16.3127C163.488 16.282 163.562 16.2661 163.637 16.2661C163.713 16.2661 163.787 16.282 163.856 16.3127C163.924 16.3435 163.986 16.3884 164.036 16.4445C164.086 16.5006 164.123 16.5666 164.146 16.6383C164.169 16.71 164.176 16.7857 164.168 16.8604V26.4513Z" fill="white"/>
<path d="M174.839 16.8673V26.4513C174.839 26.5928 174.783 26.7285 174.683 26.8286C174.583 26.9286 174.447 26.9848 174.306 26.9848C174.164 26.9848 174.028 26.9286 173.928 26.8286C173.828 26.7285 173.772 26.5928 173.772 26.4513V18.4127L167.32 26.7284C167.271 26.8071 167.204 26.8731 167.125 26.9212C167.045 26.9694 166.956 26.9983 166.863 27.0056C166.489 27.0056 166.302 26.8255 166.302 26.4651V16.8604C166.302 16.717 166.359 16.5795 166.46 16.4782C166.561 16.3768 166.699 16.3198 166.842 16.3198C166.986 16.3198 167.123 16.3768 167.225 16.4782C167.326 16.5795 167.383 16.717 167.383 16.8604V24.899L173.821 16.5832C173.871 16.5014 173.939 16.4329 174.021 16.3835C174.104 16.334 174.196 16.3051 174.292 16.2991C174.368 16.2879 174.446 16.295 174.519 16.32C174.592 16.3449 174.658 16.3869 174.712 16.4424C174.765 16.498 174.805 16.5655 174.827 16.6394C174.849 16.7133 174.853 16.7914 174.839 16.8673Z" fill="white"/>
<path d="M183.363 26.4513C183.373 26.5231 183.367 26.5963 183.344 26.6652C183.321 26.7341 183.283 26.7969 183.232 26.8485C183.181 26.9002 183.119 26.9393 183.05 26.963C182.981 26.9866 182.908 26.9941 182.836 26.9849H177.507C177.367 26.9813 177.233 26.924 177.134 26.8247C177.034 26.7254 176.977 26.5917 176.974 26.4513V16.8604C176.977 16.72 177.034 16.5863 177.134 16.487C177.233 16.3876 177.367 16.3303 177.507 16.3268H182.836C182.908 16.3175 182.981 16.325 183.05 16.3487C183.119 16.3723 183.181 16.4115 183.232 16.4631C183.283 16.5148 183.321 16.5775 183.344 16.6464C183.367 16.7153 183.373 16.7885 183.363 16.8604C183.373 16.932 183.367 17.005 183.344 17.0737C183.321 17.1424 183.283 17.2048 183.232 17.256C183.181 17.3071 183.118 17.3456 183.05 17.3684C182.981 17.3911 182.908 17.3975 182.836 17.3871H178.034V21.1292H181.762C181.835 21.1178 181.909 21.1234 181.978 21.1456C182.048 21.1678 182.112 21.206 182.164 21.2571C182.217 21.3083 182.257 21.3709 182.281 21.4401C182.305 21.5093 182.312 21.5832 182.303 21.6558C182.312 21.7287 182.304 21.8027 182.28 21.8722C182.256 21.9416 182.216 22.0045 182.164 22.0561C182.112 22.1078 182.048 22.1466 181.979 22.1697C181.909 22.1928 181.835 22.1996 181.762 22.1894H178.034V25.9246H182.836C182.908 25.9141 182.981 25.9205 183.05 25.9433C183.118 25.966 183.181 26.0045 183.232 26.0557C183.283 26.1068 183.321 26.1693 183.344 26.2379C183.367 26.3066 183.373 26.3797 183.363 26.4513Z" fill="white"/>
<path d="M103.04 46.9289C103.039 46.9981 103.024 47.0663 102.994 47.1287C102.964 47.191 102.92 47.2459 102.866 47.2892C102.76 47.3862 102.622 47.4405 102.478 47.4417C102.382 47.4452 102.286 47.4192 102.204 47.3672C102.123 47.3153 102.059 47.2397 102.021 47.1506L100.552 44.2193C100.487 44.2265 100.422 44.2265 100.358 44.2193H95.0495C94.985 44.2265 94.92 44.2265 94.8555 44.2193L93.3864 47.1229C93.349 47.2109 93.2861 47.2857 93.2058 47.3375C93.1255 47.3894 93.0315 47.416 92.9359 47.414C92.7899 47.4139 92.6491 47.3595 92.5409 47.2615C92.4869 47.2168 92.4433 47.1607 92.4134 47.0972C92.3834 47.0337 92.3678 46.9644 92.3677 46.8942C92.3678 46.805 92.3892 46.7171 92.4301 46.6378L97.177 37.144C97.2145 37.0345 97.2842 36.9389 97.3769 36.8697C97.4697 36.8005 97.5811 36.7608 97.6967 36.7559C97.8141 36.7609 97.9273 36.8013 98.0213 36.8718C98.1153 36.9423 98.1857 37.0396 98.2234 37.1509L102.97 46.6448C103.022 46.7303 103.046 46.8293 103.04 46.9289ZM100.025 43.1799L97.7106 38.5299L95.3822 43.1799H100.025Z" fill="white"/>
<path d="M114.418 46.9289C114.418 46.9981 114.402 47.0663 114.372 47.1287C114.342 47.191 114.299 47.2459 114.245 47.2892C114.139 47.3862 114 47.4405 113.857 47.4417C113.76 47.4452 113.664 47.4192 113.583 47.3672C113.501 47.3153 113.437 47.2397 113.399 47.1506L109.082 38.5299L104.765 47.1229C104.727 47.2109 104.665 47.2857 104.584 47.3375C104.504 47.3894 104.41 47.416 104.314 47.414C104.168 47.4139 104.028 47.3595 103.919 47.2615C103.865 47.2174 103.82 47.1615 103.79 47.0978C103.76 47.0342 103.745 46.9646 103.746 46.8942C103.747 46.8073 103.768 46.7219 103.808 46.6448L108.555 37.144C108.593 37.0345 108.663 36.9389 108.755 36.8697C108.848 36.8005 108.96 36.7608 109.075 36.7559C109.193 36.7609 109.306 36.8013 109.4 36.8718C109.494 36.9423 109.564 37.0396 109.602 37.1509L114.342 46.6725C114.39 46.7493 114.417 46.838 114.418 46.9289Z" fill="white"/>
<path d="M122.228 44.247C122.223 45.0926 121.884 45.9021 121.287 46.5C120.689 47.0979 119.879 47.4362 119.034 47.4417H116.373C116.233 47.4351 116.1 47.377 116 47.2785C115.9 47.18 115.84 47.0481 115.832 46.9081V37.3172C115.832 37.1757 115.888 37.04 115.988 36.9399C116.088 36.8398 116.224 36.7836 116.366 36.7836C116.507 36.7836 116.643 36.8398 116.743 36.9399C116.843 37.04 116.899 37.1757 116.899 37.3172V41.0455H119.027C119.875 41.0473 120.689 41.3852 121.289 41.9852C121.889 42.5852 122.226 43.3985 122.228 44.247ZM121.161 44.247C121.162 43.9665 121.107 43.6885 121 43.4292C120.894 43.1698 120.736 42.9341 120.538 42.7358C120.34 42.5374 120.104 42.3802 119.845 42.2733C119.585 42.1663 119.307 42.1117 119.027 42.1127H116.899V46.3745H119.027C119.308 46.378 119.586 46.3245 119.846 46.2173C120.106 46.1102 120.341 45.9514 120.537 45.7508C120.737 45.555 120.895 45.3209 121.003 45.0625C121.11 44.8041 121.164 44.5268 121.161 44.247Z" fill="white"/>
<path d="M130.045 46.9012C130.045 46.9712 130.031 47.0406 130.004 47.1054C129.977 47.1701 129.938 47.2289 129.889 47.2785C129.839 47.328 129.78 47.3673 129.715 47.3941C129.651 47.421 129.581 47.4348 129.511 47.4348C129.441 47.4348 129.372 47.421 129.307 47.3941C129.242 47.3673 129.184 47.328 129.134 47.2785C129.084 47.2289 129.045 47.1701 129.018 47.1054C128.991 47.0406 128.978 46.9712 128.978 46.9012V37.8439H124.737V46.9012C124.737 46.9712 124.723 47.0406 124.696 47.1054C124.669 47.1701 124.63 47.2289 124.58 47.2785C124.531 47.328 124.472 47.3673 124.407 47.3941C124.342 47.421 124.273 47.4348 124.203 47.4348C124.133 47.4348 124.064 47.421 123.999 47.3941C123.934 47.3673 123.875 47.328 123.826 47.2785C123.776 47.2289 123.737 47.1701 123.71 47.1054C123.683 47.0406 123.669 46.9712 123.669 46.9012V37.3172C123.673 37.1768 123.73 37.0431 123.83 36.9438C123.929 36.8445 124.063 36.7871 124.203 36.7836H129.532C129.604 36.7734 129.677 36.78 129.746 36.8027C129.815 36.8255 129.878 36.8638 129.929 36.9148C129.981 36.9658 130.02 37.028 130.044 37.0966C130.067 37.1652 130.075 37.2383 130.066 37.3103L130.045 46.9012Z" fill="white"/>
<path d="M140.717 37.3242V46.9012C140.727 46.9739 140.72 47.048 140.697 47.1178C140.674 47.1875 140.635 47.251 140.584 47.3032C140.532 47.3555 140.469 47.3952 140.4 47.4192C140.33 47.4432 140.256 47.4509 140.183 47.4417C140.111 47.4512 140.037 47.4436 139.968 47.4196C139.899 47.3956 139.836 47.3558 139.785 47.3033C139.734 47.2508 139.695 47.1872 139.673 47.1174C139.651 47.0476 139.645 46.9735 139.657 46.9012V38.8695L133.205 47.1853C133.153 47.2627 133.084 47.3277 133.004 47.3756C132.924 47.4235 132.834 47.4531 132.741 47.4625C132.667 47.4738 132.591 47.4678 132.519 47.4448C132.448 47.4219 132.383 47.3827 132.329 47.3303C132.275 47.2779 132.234 47.2137 132.21 47.1429C132.185 47.072 132.177 46.9964 132.186 46.922V37.3172C132.176 37.2447 132.183 37.1708 132.206 37.1013C132.229 37.0318 132.268 36.9686 132.32 36.9168C132.371 36.865 132.435 36.826 132.504 36.8029C132.574 36.7798 132.648 36.7732 132.72 36.7836C132.793 36.772 132.868 36.7777 132.938 36.8002C133.009 36.8228 133.073 36.8617 133.125 36.9136C133.178 36.9656 133.218 37.0292 133.241 37.0993C133.265 37.1694 133.271 37.2441 133.261 37.3172V45.3558L139.705 37.04C139.755 36.9605 139.824 36.8939 139.904 36.8457C139.985 36.7976 140.076 36.7692 140.17 36.7628C140.246 36.7503 140.323 36.7563 140.397 36.7803C140.47 36.8044 140.536 36.8457 140.59 36.9008C140.643 36.9559 140.683 37.0231 140.705 37.0969C140.727 37.1706 140.731 37.2485 140.717 37.3242Z" fill="white"/>
<path d="M150.315 46.9012C150.325 46.9739 150.318 47.048 150.295 47.1178C150.272 47.1875 150.233 47.251 150.181 47.3032C150.13 47.3555 150.067 47.3952 149.997 47.4192C149.928 47.4432 149.854 47.4509 149.781 47.4417C149.708 47.4512 149.634 47.4436 149.565 47.4196C149.496 47.3956 149.433 47.3558 149.382 47.3033C149.331 47.2508 149.293 47.1872 149.271 47.1174C149.249 47.0476 149.243 46.9735 149.254 46.9012V42.6463H143.911V46.9012C143.92 46.9759 143.913 47.0515 143.89 47.1232C143.867 47.1949 143.83 47.261 143.779 47.3171C143.729 47.3732 143.668 47.4181 143.599 47.4488C143.531 47.4796 143.456 47.4955 143.381 47.4955C143.306 47.4955 143.232 47.4796 143.163 47.4488C143.094 47.4181 143.033 47.3732 142.983 47.3171C142.933 47.261 142.895 47.1949 142.873 47.1232C142.85 47.0515 142.843 46.9759 142.851 46.9012V37.3172C142.843 37.2425 142.85 37.1668 142.873 37.0952C142.895 37.0235 142.933 36.9574 142.983 36.9013C143.033 36.8452 143.094 36.8003 143.163 36.7696C143.232 36.7388 143.306 36.7229 143.381 36.7229C143.456 36.7229 143.531 36.7388 143.599 36.7696C143.668 36.8003 143.729 36.8452 143.779 36.9013C143.83 36.9574 143.867 37.0235 143.89 37.0952C143.913 37.1668 143.92 37.2425 143.911 37.3172V41.5791H149.254V37.3172C149.243 37.2451 149.248 37.1713 149.27 37.1017C149.292 37.0321 149.331 36.9687 149.382 36.9167C149.433 36.8647 149.496 36.8256 149.566 36.8024C149.635 36.7793 149.709 36.7729 149.781 36.7836C149.853 36.7732 149.927 36.7798 149.997 36.8029C150.066 36.826 150.13 36.865 150.181 36.9168C150.233 36.9686 150.272 37.0318 150.295 37.1013C150.318 37.1708 150.325 37.2447 150.315 37.3172V46.9012Z" fill="white"/>
<path d="M160.98 37.3242V46.9012C160.99 46.9739 160.983 47.048 160.96 47.1178C160.937 47.1875 160.898 47.251 160.846 47.3032C160.795 47.3555 160.732 47.3952 160.662 47.4192C160.593 47.4432 160.519 47.4509 160.446 47.4417C160.374 47.4512 160.3 47.4436 160.23 47.4196C160.161 47.3956 160.099 47.3558 160.047 47.3033C159.996 47.2508 159.958 47.1872 159.936 47.1174C159.914 47.0476 159.908 46.9735 159.92 46.9012V38.8695L153.468 47.1853C153.416 47.2634 153.348 47.3288 153.267 47.3768C153.187 47.4248 153.097 47.4541 153.004 47.4625C152.929 47.4738 152.854 47.4678 152.782 47.4448C152.711 47.4219 152.645 47.3827 152.592 47.3303C152.538 47.2779 152.497 47.2137 152.472 47.1429C152.448 47.072 152.44 46.9964 152.449 46.922V37.3172C152.439 37.2447 152.445 37.1708 152.468 37.1013C152.492 37.0318 152.531 36.9686 152.582 36.9168C152.634 36.865 152.697 36.826 152.767 36.8029C152.836 36.7798 152.91 36.7732 152.983 36.7836C153.056 36.772 153.131 36.7777 153.201 36.8002C153.271 36.8228 153.335 36.8617 153.388 36.9136C153.441 36.9656 153.48 37.0292 153.504 37.0993C153.527 37.1694 153.534 37.2441 153.523 37.3172V45.3558L159.968 37.04C160.018 36.9605 160.086 36.8939 160.167 36.8457C160.248 36.7976 160.339 36.7692 160.432 36.7628C160.508 36.7503 160.586 36.7563 160.659 36.7803C160.732 36.8044 160.799 36.8457 160.852 36.9008C160.906 36.9559 160.946 37.0231 160.968 37.0969C160.99 37.1706 160.994 37.2485 160.98 37.3242Z" fill="white"/>
<path d="M171.665 45.5152C171.656 45.6531 171.594 45.782 171.492 45.8756C171.026 46.398 170.438 46.7978 169.781 47.0398C169.129 47.2975 168.437 47.4338 167.736 47.4417C167.036 47.4417 166.343 47.3039 165.697 47.0361C165.05 46.7682 164.463 46.3757 163.968 45.8809C163.473 45.386 163.081 44.7985 162.813 44.152C162.545 43.5055 162.407 42.8125 162.407 42.1127C162.407 41.4128 162.545 40.7199 162.813 40.0733C163.081 39.4268 163.473 38.8393 163.968 38.3445C164.463 37.8496 165.05 37.4571 165.697 37.1893C166.343 36.9215 167.036 36.7836 167.736 36.7836C168.437 36.7882 169.13 36.9246 169.781 37.1856C170.436 37.4254 171.023 37.82 171.492 38.3359C171.594 38.4382 171.655 38.5734 171.665 38.717C171.665 38.7886 171.651 38.8594 171.622 38.925C171.593 38.9906 171.552 39.0495 171.499 39.0982C171.449 39.1509 171.389 39.1928 171.322 39.2214C171.256 39.25 171.184 39.2646 171.111 39.2645C170.973 39.2534 170.843 39.1946 170.744 39.0982C170.64 39.0012 170.474 38.8556 170.245 38.6685C169.516 38.1115 168.619 37.8205 167.702 37.8439C167.127 37.8207 166.554 37.9139 166.016 38.1178C165.478 38.3217 164.987 38.6322 164.573 39.0305C164.158 39.4289 163.828 39.9069 163.602 40.436C163.377 40.965 163.261 41.5341 163.261 42.1092C163.261 42.6843 163.377 43.2534 163.602 43.7824C163.828 44.3115 164.158 44.7895 164.573 45.1879C164.987 45.5862 165.478 45.8967 166.016 46.1006C166.554 46.3045 167.127 46.3977 167.702 46.3745C168.608 46.3941 169.495 46.1059 170.217 45.5568C170.328 45.4598 170.494 45.3142 170.716 45.1341C170.813 45.0336 170.944 44.972 171.083 44.9608C171.156 44.9607 171.228 44.9754 171.295 45.004C171.361 45.0326 171.421 45.0745 171.471 45.1271C171.529 45.1743 171.577 45.2333 171.61 45.3003C171.644 45.3672 171.663 45.4405 171.665 45.5152Z" fill="white"/>
<path d="M179.829 37.3172C179.838 37.3892 179.83 37.4623 179.807 37.5309C179.783 37.5995 179.744 37.6617 179.692 37.7127C179.641 37.7637 179.578 37.802 179.509 37.8248C179.44 37.8475 179.367 37.8541 179.295 37.8439H176.634V46.9012C176.634 47.0427 176.578 47.1784 176.478 47.2785C176.378 47.3785 176.242 47.4348 176.1 47.4348C175.959 47.4348 175.823 47.3785 175.723 47.2785C175.623 47.1784 175.567 47.0427 175.567 46.9012V37.8439H172.913C172.838 37.8524 172.762 37.8451 172.691 37.8224C172.619 37.7996 172.553 37.762 172.497 37.7119C172.441 37.6619 172.396 37.6005 172.365 37.5319C172.334 37.4633 172.318 37.3889 172.318 37.3138C172.318 37.2386 172.334 37.1642 172.365 37.0956C172.396 37.027 172.441 36.9656 172.497 36.9156C172.553 36.8655 172.619 36.8279 172.691 36.8051C172.762 36.7824 172.838 36.7751 172.913 36.7836H179.302C179.374 36.7744 179.447 36.7819 179.516 36.8055C179.584 36.8292 179.646 36.8683 179.697 36.92C179.748 36.9716 179.787 37.0343 179.81 37.1032C179.832 37.1721 179.839 37.2454 179.829 37.3172Z" fill="white"/>
<path d="M189.447 45.5152C189.437 45.6514 189.378 45.7793 189.281 45.8756C188.812 46.3981 188.222 46.7978 187.562 47.0398C186.901 47.303 186.195 47.4393 185.483 47.4417C184.07 47.4417 182.715 46.8803 181.715 45.8809C180.716 44.8815 180.154 43.526 180.154 42.1127C180.154 40.6993 180.716 39.3439 181.715 38.3445C182.715 37.3451 184.07 36.7836 185.483 36.7836C186.196 36.7828 186.902 36.9193 187.562 37.1856C188.219 37.4254 188.809 37.8199 189.281 38.3359C189.378 38.4405 189.436 38.5749 189.447 38.7171C189.447 38.7886 189.432 38.8594 189.404 38.925C189.375 38.9906 189.333 39.0495 189.281 39.0982C189.232 39.151 189.174 39.1931 189.108 39.2217C189.042 39.2504 188.971 39.2649 188.9 39.2645C188.762 39.2534 188.632 39.1946 188.532 39.0982L188.034 38.6685C187.311 38.1194 186.425 37.829 185.518 37.8439C184.943 37.8207 184.37 37.9139 183.832 38.1178C183.295 38.3217 182.804 38.6322 182.389 39.0305C181.974 39.4289 181.644 39.9069 181.419 40.436C181.193 40.965 181.077 41.5341 181.077 42.1092C181.077 42.6843 181.193 43.2534 181.419 43.7824C181.644 44.3115 181.974 44.7895 182.389 45.1879C182.804 45.5862 183.295 45.8967 183.832 46.1006C184.37 46.3045 184.943 46.3977 185.518 46.3745C186.424 46.3919 187.311 46.1039 188.034 45.5568C188.137 45.4598 188.304 45.3142 188.532 45.1341C188.63 45.0336 188.76 44.972 188.9 44.9608C188.971 44.9604 189.042 44.975 189.108 45.0036C189.174 45.0323 189.232 45.0743 189.281 45.1271C189.334 45.1769 189.376 45.237 189.405 45.3038C189.433 45.3706 189.448 45.4426 189.447 45.5152Z" fill="white"/>
<path d="M197.805 46.9012C197.803 47.0419 197.745 47.1762 197.646 47.2754C197.596 47.3272 197.537 47.3686 197.472 47.3972C197.406 47.4258 197.336 47.4409 197.264 47.4417C197.194 47.4408 197.125 47.4255 197.06 47.397C196.996 47.3684 196.938 47.327 196.89 47.2754L192.095 42.4938C192.015 42.4169 191.959 42.3181 191.935 42.2097V46.9012C191.935 47.0427 191.879 47.1784 191.779 47.2785C191.679 47.3786 191.543 47.4348 191.402 47.4348C191.26 47.4348 191.125 47.3786 191.024 47.2785C190.924 47.1784 190.868 47.0427 190.868 46.9012V37.3172C190.868 37.1757 190.924 37.04 191.024 36.9399C191.125 36.8398 191.26 36.7836 191.402 36.7836C191.543 36.7836 191.679 36.8398 191.779 36.9399C191.879 37.04 191.935 37.1757 191.935 37.3172V42.0156C191.959 41.9093 192.015 41.8127 192.095 41.7385L196.89 36.943C196.938 36.892 196.996 36.8515 197.061 36.8241C197.125 36.7966 197.194 36.7829 197.264 36.7836C197.335 36.7831 197.406 36.797 197.471 36.8244C197.537 36.8518 197.596 36.8921 197.646 36.943C197.747 37.0439 197.804 37.181 197.805 37.3242C197.806 37.3942 197.792 37.4636 197.764 37.528C197.737 37.5924 197.697 37.6504 197.646 37.6984L193.231 42.1127L197.646 46.527C197.697 46.5749 197.737 46.6329 197.764 46.6973C197.792 46.7618 197.806 46.8312 197.805 46.9012Z" fill="white"/>
<path d="M207.77 37.3242V46.9012C207.78 46.9739 207.773 47.048 207.75 47.1178C207.727 47.1875 207.688 47.251 207.637 47.3032C207.585 47.3555 207.522 47.3952 207.453 47.4192C207.383 47.4432 207.309 47.4509 207.236 47.4417C207.164 47.4512 207.09 47.4436 207.021 47.4196C206.951 47.3956 206.889 47.3558 206.838 47.3033C206.786 47.2508 206.748 47.1872 206.726 47.1174C206.704 47.0476 206.698 46.9735 206.71 46.9012V38.8695L200.258 47.1853C200.206 47.2634 200.138 47.3288 200.057 47.3768C199.977 47.4248 199.887 47.4541 199.794 47.4625C199.719 47.4738 199.644 47.4678 199.572 47.4448C199.501 47.4219 199.436 47.3827 199.382 47.3303C199.328 47.2779 199.287 47.2137 199.262 47.1429C199.238 47.072 199.23 46.9964 199.239 46.922V37.3172C199.229 37.2447 199.235 37.1708 199.258 37.1013C199.282 37.0318 199.321 36.9686 199.372 36.9168C199.424 36.865 199.487 36.826 199.557 36.8029C199.626 36.7798 199.7 36.7732 199.773 36.7836C199.846 36.772 199.921 36.7777 199.991 36.8002C200.061 36.8228 200.125 36.8617 200.178 36.9136C200.231 36.9656 200.27 37.0292 200.294 37.0993C200.317 37.1694 200.324 37.2441 200.313 37.3172V45.3558L206.758 37.04C206.808 36.9605 206.876 36.8939 206.957 36.8457C207.038 36.7976 207.129 36.7692 207.222 36.7628C207.298 36.7503 207.376 36.7563 207.449 36.7803C207.522 36.8044 207.589 36.8457 207.642 36.9008C207.696 36.9559 207.736 37.0231 207.758 37.0969C207.78 37.1706 207.784 37.2485 207.77 37.3242Z" fill="white"/>
<path d="M217.742 46.9081C217.741 46.9792 217.725 47.0494 217.696 47.114C217.666 47.1785 217.622 47.2359 217.568 47.2823C217.464 47.383 217.325 47.44 217.18 47.4417C217.101 47.4417 217.022 47.4229 216.951 47.3868C216.88 47.3506 216.819 47.2982 216.772 47.2338L213.438 42.965L210.133 47.213C210.086 47.2774 210.024 47.3298 209.953 47.366C209.882 47.4021 209.804 47.4209 209.724 47.4209C209.579 47.4192 209.44 47.3622 209.336 47.2615C209.283 47.214 209.241 47.1564 209.211 47.0921C209.181 47.0278 209.165 46.9582 209.163 46.8873C209.163 46.7672 209.207 46.6513 209.287 46.5616L212.752 42.085L209.287 37.6291C209.209 37.536 209.164 37.4184 209.163 37.2965C209.163 37.2253 209.179 37.1552 209.209 37.0906C209.239 37.0261 209.282 36.9687 209.336 36.9222C209.387 36.8712 209.447 36.8307 209.514 36.8034C209.58 36.776 209.652 36.7622 209.724 36.7629C209.804 36.7628 209.882 36.7817 209.953 36.8178C210.024 36.8539 210.086 36.9063 210.133 36.9707L213.438 41.2395L216.744 36.9915C216.791 36.9271 216.852 36.8747 216.923 36.8386C216.994 36.8025 217.073 36.7836 217.153 36.7836C217.225 36.783 217.296 36.7968 217.363 36.8242C217.429 36.8515 217.49 36.8919 217.541 36.943C217.596 36.9885 217.64 37.0457 217.67 37.1105C217.7 37.1753 217.715 37.2459 217.714 37.3172C217.714 37.4374 217.669 37.5532 217.589 37.6429L214.124 42.1057L217.589 46.5824C217.678 46.6686 217.733 46.7845 217.742 46.9081Z" fill="white"/>
<path d="M103.04 67.3788C103.04 67.4492 103.025 67.5188 102.995 67.5824C102.965 67.646 102.921 67.702 102.866 67.7461C102.759 67.8411 102.621 67.893 102.478 67.8916C102.382 67.8966 102.287 67.8721 102.205 67.8213C102.123 67.7705 102.059 67.6959 102.021 67.6075L97.7105 58.9799L93.3932 67.6075C93.3555 67.6947 93.2923 67.7686 93.212 67.8193C93.1316 67.87 93.0377 67.8952 92.9428 67.8916C92.7975 67.8941 92.6567 67.8422 92.5478 67.7461C92.4937 67.7013 92.4501 67.6452 92.4202 67.5818C92.3903 67.5183 92.3747 67.449 92.3745 67.3788C92.3754 67.2897 92.3967 67.202 92.4369 67.1224L97.1838 57.6285C97.2183 57.5167 97.2877 57.4188 97.3818 57.3493C97.476 57.2797 97.59 57.2422 97.707 57.2422C97.8241 57.2422 97.938 57.2797 98.0322 57.3493C98.1264 57.4188 98.1958 57.5167 98.2302 57.6285L102.977 67.1293C103.02 67.2054 103.042 67.2916 103.04 67.3788Z" fill="white"/>
<path d="M114.418 67.3788C114.419 67.4492 114.404 67.5188 114.374 67.5824C114.344 67.646 114.3 67.702 114.245 67.7461C114.138 67.8411 114 67.893 113.857 67.8916C113.761 67.8966 113.665 67.8721 113.583 67.8213C113.502 67.7705 113.437 67.6959 113.399 67.6075L111.93 64.6692C111.866 64.6798 111.8 64.6798 111.736 64.6692H106.428C106.364 64.6798 106.298 64.6798 106.234 64.6692L104.765 67.6075C104.727 67.6947 104.664 67.7686 104.584 67.8193C104.503 67.87 104.409 67.8952 104.314 67.8916C104.168 67.8951 104.026 67.8402 103.919 67.7392C103.865 67.6951 103.82 67.6391 103.79 67.5755C103.76 67.5118 103.745 67.4422 103.746 67.3719C103.747 67.2828 103.768 67.195 103.808 67.1155L108.555 57.6285C108.59 57.5167 108.659 57.4188 108.753 57.3493C108.848 57.2797 108.962 57.2422 109.079 57.2422C109.196 57.2422 109.31 57.2797 109.404 57.3493C109.498 57.4188 109.567 57.5167 109.602 57.6285L114.342 67.1293C114.39 67.204 114.416 67.2903 114.418 67.3788ZM111.404 63.6367L109.082 58.9799L106.754 63.6367H111.404Z" fill="white"/>
<path d="M122.228 57.7672C122.238 57.839 122.232 57.9122 122.209 57.9811C122.186 58.05 122.148 58.1128 122.097 58.1644C122.046 58.216 121.984 58.2552 121.915 58.2789C121.847 58.3025 121.774 58.31 121.702 58.3007H116.899V67.358C116.899 67.4995 116.843 67.6353 116.743 67.7353C116.643 67.8354 116.507 67.8916 116.366 67.8916C116.224 67.8916 116.088 67.8354 115.988 67.7353C115.888 67.6353 115.832 67.4995 115.832 67.358V57.7741C115.839 57.6329 115.898 57.4993 115.998 57.3993C116.098 57.2994 116.231 57.2403 116.373 57.2336H121.702C121.774 57.2243 121.847 57.2318 121.915 57.2554C121.984 57.2791 122.046 57.3183 122.097 57.3699C122.148 57.4216 122.186 57.4843 122.209 57.5532C122.232 57.6221 122.238 57.6953 122.228 57.7672Z" fill="white"/>
<path d="M129.685 67.358C129.695 67.4299 129.688 67.5031 129.666 67.572C129.643 67.6409 129.605 67.7036 129.554 67.7553C129.503 67.8069 129.44 67.8461 129.372 67.8697C129.303 67.8934 129.23 67.9009 129.158 67.8916H123.822C123.682 67.8881 123.548 67.8308 123.449 67.7314C123.349 67.6321 123.292 67.4984 123.289 67.358V57.7741C123.292 57.633 123.349 57.4985 123.448 57.3981C123.547 57.2976 123.681 57.2388 123.822 57.2336H129.158C129.3 57.2336 129.435 57.2898 129.535 57.3898C129.636 57.4899 129.692 57.6256 129.692 57.7672C129.692 57.9087 129.636 58.0444 129.535 58.1445C129.435 58.2445 129.3 58.3007 129.158 58.3007H124.356V62.0359H128.084C128.226 62.0359 128.361 62.0921 128.461 62.1922C128.561 62.2923 128.618 62.428 128.618 62.5695C128.618 62.711 128.561 62.8468 128.461 62.9468C128.361 63.0469 128.226 63.1031 128.084 63.1031H124.356V66.8314H129.158C129.23 66.8209 129.303 66.8273 129.371 66.85C129.44 66.8728 129.503 66.9113 129.554 66.9625C129.605 67.0136 129.643 67.076 129.666 67.1447C129.689 67.2134 129.695 67.2864 129.685 67.358Z" fill="white"/>
<path d="M131.105 67.358V57.7741C131.109 57.633 131.166 57.4985 131.265 57.3981C131.364 57.2976 131.498 57.2388 131.639 57.2336H134.3C135.149 57.2336 135.963 57.5709 136.564 58.1713C137.164 58.7717 137.501 59.586 137.501 60.4351C137.501 61.2842 137.164 62.0986 136.564 62.699C135.963 63.2994 135.149 63.6367 134.3 63.6367H132.699C132.626 63.6472 132.553 63.6406 132.483 63.6174C132.414 63.5943 132.35 63.5553 132.299 63.5035C132.247 63.4517 132.208 63.3886 132.185 63.3191C132.162 63.2495 132.155 63.1756 132.165 63.1031V67.358C132.18 67.4291 132.177 67.5025 132.158 67.5725C132.139 67.6424 132.104 67.7069 132.055 67.7608C132.007 67.8147 131.947 67.8565 131.879 67.8828C131.811 67.9091 131.739 67.9193 131.666 67.9124C131.59 67.929 131.51 67.9262 131.435 67.9043C131.36 67.8824 131.292 67.8421 131.236 67.7871C131.18 67.7321 131.139 67.664 131.116 67.5891C131.093 67.5142 131.09 67.4348 131.105 67.358ZM132.165 63.1031C132.155 63.0306 132.162 62.9567 132.185 62.8872C132.208 62.8177 132.247 62.7545 132.299 62.7027C132.35 62.6509 132.414 62.6119 132.483 62.5888C132.553 62.5657 132.626 62.5591 132.699 62.5695H134.3C134.581 62.573 134.859 62.5196 135.119 62.4124C135.379 62.3052 135.614 62.1465 135.81 61.9458C136.01 61.75 136.168 61.5159 136.276 61.2575C136.383 60.9991 136.437 60.7218 136.434 60.4421C136.436 60.1609 136.382 59.8822 136.276 59.6221C136.169 59.3619 136.012 59.1254 135.814 58.9263C135.615 58.7272 135.379 58.5694 135.119 58.462C134.859 58.3546 134.581 58.2998 134.3 58.3007H132.165V63.1031Z" fill="white"/>
<path d="M145.311 67.358C145.323 67.4301 145.318 67.504 145.295 67.5736C145.273 67.6432 145.235 67.7065 145.184 67.7585C145.132 67.8105 145.069 67.8497 145 67.8728C144.931 67.8959 144.857 67.9024 144.785 67.8916H139.456C139.315 67.8881 139.182 67.8308 139.082 67.7314C138.983 67.6321 138.926 67.4984 138.922 67.358V57.7741C138.92 57.7039 138.933 57.6341 138.961 57.5695C138.988 57.5049 139.029 57.447 139.081 57.3999C139.128 57.3469 139.186 57.3046 139.25 57.2759C139.315 57.2472 139.385 57.2328 139.456 57.2336H144.785C144.926 57.2336 145.062 57.2898 145.162 57.3898C145.262 57.4899 145.318 57.6256 145.318 57.7671C145.318 57.9087 145.262 58.0444 145.162 58.1445C145.062 58.2445 144.926 58.3007 144.785 58.3007H139.982V62.0359H143.718C143.859 62.0359 143.995 62.0921 144.095 62.1922C144.195 62.2923 144.251 62.428 144.251 62.5695C144.251 62.711 144.195 62.8468 144.095 62.9468C143.995 63.0469 143.859 63.1031 143.718 63.1031H139.982V66.8314H144.785C144.856 66.8209 144.929 66.8273 144.998 66.85C145.067 66.8728 145.129 66.9113 145.18 66.9625C145.231 67.0136 145.27 67.076 145.293 67.1447C145.315 67.2134 145.322 67.2864 145.311 67.358Z" fill="white"/>
<path d="M155.277 57.781V67.358C155.287 67.4305 155.28 67.5044 155.257 67.574C155.234 67.6435 155.195 67.7066 155.143 67.7584C155.092 67.8102 155.028 67.8492 154.959 67.8723C154.889 67.8955 154.816 67.9021 154.743 67.8916C154.671 67.9024 154.597 67.8959 154.528 67.8728C154.458 67.8497 154.396 67.8105 154.344 67.7585C154.293 67.7065 154.255 67.6432 154.232 67.5736C154.21 67.504 154.205 67.4301 154.216 67.358V59.3263L147.765 67.6421C147.714 67.7213 147.646 67.7876 147.565 67.8357C147.485 67.8838 147.394 67.9125 147.3 67.9193C147.226 67.9306 147.15 67.9246 147.079 67.9017C147.008 67.8787 146.942 67.8395 146.889 67.7871C146.835 67.7347 146.794 67.6706 146.769 67.5997C146.745 67.5289 146.737 67.4533 146.746 67.3788V57.7671C146.736 57.6946 146.742 57.6207 146.765 57.5512C146.788 57.4817 146.827 57.4185 146.879 57.3667C146.931 57.315 146.994 57.2759 147.064 57.2528C147.133 57.2297 147.207 57.2231 147.28 57.2335C147.353 57.2231 147.428 57.2299 147.498 57.2534C147.569 57.2769 147.632 57.3164 147.685 57.3689C147.737 57.4213 147.777 57.4852 147.8 57.5555C147.824 57.6258 147.831 57.7007 147.82 57.7741V65.8335L154.265 57.5177C154.315 57.4372 154.382 57.3696 154.463 57.3202C154.544 57.2709 154.635 57.2412 154.729 57.2335C154.804 57.2232 154.879 57.2302 154.95 57.254C155.022 57.2779 155.086 57.3179 155.139 57.371C155.192 57.424 155.232 57.4887 155.256 57.5598C155.28 57.631 155.287 57.7067 155.277 57.781ZM153.198 54.5725C153.164 54.7777 153.058 54.9643 152.9 55.0992C152.68 55.3935 152.402 55.6404 152.084 55.825C151.766 56.0096 151.414 56.128 151.049 56.1733C150.64 56.1435 150.248 55.9968 149.92 55.7506C149.56 55.5297 149.245 55.2429 148.991 54.9051C148.916 54.8097 148.873 54.6936 148.867 54.5725C148.869 54.5017 148.885 54.432 148.915 54.3677C148.945 54.3034 148.987 54.2458 149.04 54.1983C149.141 54.0968 149.278 54.0395 149.421 54.0389C149.56 54.0389 149.802 54.2191 150.149 54.5725C150.227 54.7334 150.349 54.8691 150.501 54.9639C150.653 55.0588 150.829 55.1091 151.008 55.1091C151.187 55.1091 151.362 55.0588 151.514 54.9639C151.666 54.8691 151.789 54.7334 151.867 54.5725C152.207 54.2191 152.449 54.0389 152.595 54.0389C152.74 54.0391 152.879 54.0964 152.983 54.1983C153.035 54.2453 153.078 54.303 153.106 54.3675C153.135 54.432 153.15 54.5019 153.149 54.5725H153.198Z" fill="white"/>
<path fill-rule="evenodd" clip-rule="evenodd" d="M20.4785 4.03412C24.3783 2.14251 27.8238 1.0465 31.8995 0.401223C35.4505 -0.161011 40.9491 -0.128718 44.4961 0.475227C53.0165 1.92608 60.2849 5.70467 66.2969 11.8085C75.5472 21.2 79.4453 34.4714 76.8037 47.5789C75.9306 51.9107 73.6302 57.4231 71.1088 61.2263C68.0365 65.8604 63.3981 70.3426 58.7349 73.1829C39.0557 85.1707 13.3764 77.9874 2.81813 57.5415C1.64048 55.261 1.51564 54.7163 1.97549 53.8644C2.12961 53.5789 8.1329 47.4897 15.3163 40.3329C24.1726 31.5096 28.5476 27.2795 28.9069 27.1934C30.177 26.8885 31.1705 27.6262 31.1705 28.8743C31.1705 29.6628 31.0948 29.7556 27.5583 33.2958C25.5717 35.2847 19.8572 41.037 14.8596 46.0788L5.77296 55.2457L6.32509 56.3369C7.92792 59.505 11.2247 63.6621 14.2439 66.3223C24.438 75.3042 39.0939 77.819 51.4948 72.7139C62.9566 67.9958 70.9137 58.2704 73.3965 45.9451C73.782 44.0321 73.8416 43.1652 73.8394 39.5058C73.8365 34.4893 73.4894 32.2242 72.0902 28.0922C67.9338 15.8174 57.7742 6.85663 45.0488 4.24229C41.0435 3.41941 35.1982 3.41749 31.1628 4.23787C19.4509 6.61886 9.65712 14.5568 4.96249 25.4738C4.43695 26.6955 4.00715 27.7986 4.00715 27.9253C4.00715 28.052 6.25516 30.4066 9.00289 33.1578C12.2511 36.4105 14.0445 38.3465 14.1298 38.6925C14.289 39.3378 13.9295 40.281 13.3775 40.6668C13.1566 40.8211 12.6734 40.9474 12.3037 40.9474C11.6797 40.9474 11.2195 40.5374 5.88585 35.229C2.54727 31.9061 0.0890844 29.3097 0.0181901 29.0309C-0.230903 28.0522 2.12537 22.3653 4.20019 18.938C8.00652 12.6506 13.9682 7.19243 20.4785 4.03412ZM43.7963 36.2847L49.7283 30.3458L68.6051 49.2435C68.9542 49.5877 69.4253 49.78 69.9156 49.7783C70.4059 49.7766 70.8757 49.581 71.2224 49.2343C71.5691 48.8876 71.7646 48.4179 71.7663 47.9276C71.768 47.4373 71.5758 46.9662 71.2315 46.6171L51.0449 26.4028C50.6958 26.0562 50.2237 25.8617 49.7317 25.8617C49.2397 25.8617 48.7677 26.0562 48.4185 26.4028L41.1699 33.6514C40.8207 33.9996 40.6242 34.4724 40.6235 34.9656C40.6229 35.4588 40.8182 35.932 41.1665 36.2812C41.5148 36.6304 41.9875 36.827 42.4807 36.8276C42.9739 36.8283 43.4471 36.633 43.7963 36.2847ZM39.4514 36.4371L34.1016 31.0873C33.9295 30.9129 33.7247 30.7742 33.4989 30.6793C33.273 30.5843 33.0307 30.535 32.7857 30.5342C32.5407 30.5333 32.298 30.5809 32.0715 30.6743C31.845 30.7677 31.6392 30.9049 31.466 31.0781C31.2927 31.2514 31.1555 31.4571 31.0621 31.6836C30.9688 31.9101 30.9212 32.1529 30.922 32.3978C30.9229 32.6428 30.9722 32.8852 31.0671 33.111C31.162 33.3369 31.3007 33.5417 31.4752 33.7137L33.6511 35.8897H27.5806C27.1067 35.9186 26.6618 36.1273 26.3365 36.473C26.0112 36.8188 25.8301 37.2756 25.8301 37.7504C25.8301 38.2251 26.0112 38.6819 26.3365 39.0277C26.6618 39.3734 27.1067 39.5821 27.5806 39.611H37.3655L42.1471 44.3857C42.3191 44.5589 42.5237 44.6965 42.749 44.7903C42.9744 44.8842 43.2161 44.9325 43.4603 44.9325C43.7044 44.9325 43.9462 44.8842 44.1715 44.7903C44.3969 44.6965 44.6015 44.5589 44.7735 44.3857C45.1201 44.0365 45.3146 43.5644 45.3146 43.0725C45.3146 42.5805 45.1201 42.1084 44.7735 41.7593L39.4514 36.4371Z" fill="white"/>
</svg>
